<svg width="170" height="32" viewBox="0 0 170 32" fill="none" xmlns="http://www.w3.org/2000/svg">
<path d="M0.28 0.903999H20.8V25.96L5.428 32.008H0.28V0.903999ZM16.84 11.812L19.36 9.76V5.224C19.36 5.176 19.222 5.008 18.946 4.72C18.67 4.42 18.346 4.09 17.974 3.73C17.602 3.358 17.266 3.034 16.966 2.758C16.666 2.482 16.492 2.344 16.444 2.344H1.72V20.56H16.444C16.492 20.56 16.666 20.422 16.966 20.146C17.266 19.87 17.602 19.552 17.974 19.192C18.346 18.82 18.67 18.49 18.946 18.202C19.222 17.902 19.36 17.728 19.36 17.68V13.864L16.84 11.812ZM13.024 9.112C13.024 9.208 12.976 9.256 12.88 9.256H8.416C8.32 9.256 8.272 9.208 8.272 9.112V7.96C8.272 7.864 8.32 7.816 8.416 7.816H12.88C12.976 7.816 13.024 7.864 13.024 7.96V9.112ZM13.024 14.944C13.024 15.04 12.976 15.088 12.88 15.088H8.416C8.32 15.088 8.272 15.04 8.272 14.944V13.792C8.272 13.696 8.32 13.648 8.416 13.648H12.88C12.976 13.648 13.024 13.696 13.024 13.792V14.944ZM19.3698 0.903999H30.5658V25.924L22.4298 32.008H19.3698V0.903999ZM20.8098 2.344V4.54H29.1258V2.344H20.8098ZM29.1258 5.908H20.8098V20.56H29.1258V5.908ZM29.1433 0.903999H40.3393V25.924L32.2033 32.008H29.1433V0.903999ZM38.8993 2.344H30.5833V17.68C30.5833 17.728 30.7213 17.902 30.9973 18.202C31.2733 18.49 31.5973 18.82 31.9693 19.192C32.3413 19.552 32.6773 19.87 32.9773 20.146C33.2773 20.422 33.4513 20.56 33.4993 20.56H38.8993V2.344ZM38.9167 0.903999H50.1127V25.924L41.9767 32.008H38.9167V0.903999ZM48.6727 2.344H40.3567V17.68C40.3567 17.728 40.4947 17.902 40.7707 18.202C41.0467 18.49 41.3707 18.82 41.7427 19.192C42.1147 19.552 42.4507 19.87 42.7507 20.146C43.0507 20.422 43.2247 20.56 43.2727 20.56H48.6727V2.344ZM58.78 0.903999H77.932V25.96L63.604 32.008H58.78V0.903999ZM69.508 15.34V14.188C69.508 14.092 69.556 14.044 69.652 14.044H76.492V9.22H69.652C69.556 9.22 69.508 9.172 69.508 9.076V7.924C69.508 7.828 69.556 7.78 69.652 7.78H76.492V2.344H60.22V20.56H76.492V15.484H69.652C69.556 15.484 69.508 15.436 69.508 15.34ZM76.4987 16.312V4.576H97.0908V16.312L97.0547 22V25.96L81.6828 32.008H76.5347V22L76.4987 16.312ZM86.0748 6.088C86.0748 6.052 86.0748 6.028 86.0748 6.016H77.9388V15.376C77.9388 15.388 78.1068 15.574 78.4428 15.934C78.7788 16.282 79.1928 16.714 79.6848 17.23C80.1888 17.746 80.6928 18.262 81.1968 18.778C81.7008 19.282 82.1268 19.708 82.4748 20.056C82.8228 20.392 83.0028 20.56 83.0148 20.56H90.5748C90.5868 20.56 90.7668 20.392 91.1148 20.056C91.4628 19.708 91.8888 19.282 92.3928 18.778C92.8968 18.262 93.3948 17.746 93.8868 17.23C94.3908 16.714 94.8108 16.282 95.1468 15.934C95.4828 15.574 95.6508 15.388 95.6508 15.376V6.016H87.5148C87.5148 6.028 87.5148 6.052 87.5148 6.088V13.792C87.5148 13.888 87.4668 13.936 87.3708 13.936H86.2188C86.1228 13.936 86.0748 13.888 86.0748 13.792V6.088ZM95.6589 4.576H114.811V25.96L100.483 32.008H95.6589V4.576ZM104.515 11.56L97.0989 12.64V17.68C97.0989 17.728 97.2369 17.902 97.5129 18.202C97.7889 18.49 98.1129 18.82 98.4849 19.192C98.8569 19.552 99.1929 19.87 99.4929 20.146C99.7929 20.422 99.9669 20.56 100.015 20.56H113.371V8.896C113.371 8.848 113.233 8.68 112.957 8.392C112.681 8.092 112.357 7.762 111.985 7.402C111.613 7.03 111.277 6.706 110.977 6.43C110.677 6.154 110.503 6.016 110.455 6.016H97.0989V11.2L104.299 10.156C104.299 10.156 104.305 10.21 104.317 10.318C104.341 10.426 104.371 10.6 104.407 10.84C104.443 11.068 104.467 11.248 104.479 11.38C104.503 11.5 104.515 11.56 104.515 11.56ZM107.647 16.204C107.647 16.3 107.599 16.348 107.503 16.348H103.039C102.943 16.348 102.895 16.3 102.895 16.204V15.052C102.895 14.956 102.943 14.908 103.039 14.908H107.503C107.599 14.908 107.647 14.956 107.647 15.052V16.204ZM122.702 0.903999H133.898V25.96L118.526 32.008H113.378V4.576H122.702V0.903999ZM117.734 6.016C117.674 6.016 117.488 6.154 117.176 6.43C116.876 6.706 116.54 7.03 116.168 7.402C115.808 7.762 115.49 8.092 115.214 8.392C114.95 8.68 114.818 8.848 114.818 8.896V17.68C114.818 17.728 114.956 17.902 115.232 18.202C115.508 18.49 115.832 18.82 116.204 19.192C116.576 19.552 116.912 19.87 117.212 20.146C117.512 20.422 117.686 20.56 117.734 20.56H132.458V2.344H124.142V6.016H117.734ZM124.358 15.484C124.358 15.58 124.31 15.628 124.214 15.628H123.062C122.966 15.628 122.918 15.58 122.918 15.484V11.02C122.918 10.924 122.966 10.876 123.062 10.876H124.214C124.31 10.876 124.358 10.924 124.358 11.02V15.484ZM132.467 4.576H151.62V25.96L137.292 32.008H132.467V4.576ZM136.824 6.016C136.776 6.016 136.602 6.154 136.302 6.43C136.002 6.706 135.666 7.03 135.294 7.402C134.922 7.762 134.598 8.092 134.322 8.392C134.046 8.68 133.908 8.848 133.908 8.896V17.68C133.908 17.728 134.046 17.902 134.322 18.202C134.598 18.49 134.922 18.82 135.294 19.192C135.666 19.552 136.002 19.87 136.302 20.146C136.602 20.422 136.776 20.56 136.824 20.56H150.18V15.628L142.98 16.672C142.98 16.672 142.968 16.618 142.944 16.51C142.932 16.39 142.908 16.216 142.872 15.988C142.836 15.748 142.806 15.568 142.782 15.448C142.77 15.328 142.764 15.268 142.764 15.268L150.18 14.188V8.896C150.18 8.848 150.042 8.68 149.766 8.392C149.49 8.092 149.166 7.762 148.794 7.402C148.422 7.03 148.086 6.706 147.786 6.43C147.486 6.154 147.312 6.016 147.264 6.016H136.824ZM144.492 11.74C144.492 11.836 144.444 11.884 144.348 11.884H139.884C139.788 11.884 139.74 11.836 139.74 11.74V10.588C139.74 10.492 139.788 10.444 139.884 10.444H144.348C144.444 10.444 144.492 10.492 144.492 10.588V11.74ZM150.186 4.576H169.338V25.96L155.01 32.008H150.186V4.576ZM158.142 6.016H151.626V20.56H159.978V15.484H167.898V6.016H162.102L160.086 9.868L158.142 6.016Z" fill="black"/>
</svg>
