<svg width="83" height="27" viewBox="0 0 83 27" fill="none" xmlns="http://www.w3.org/2000/svg">
<path d="M0.476 0.799998H6.452C8.492 0.799998 9.98 1.28 10.916 2.24C11.852 3.176 12.32 4.628 12.32 6.596V7.604C12.32 8.9 12.104 9.956 11.672 10.772C11.264 11.588 10.628 12.176 9.764 12.536V12.608C11.732 13.28 12.716 15.032 12.716 17.864V20.024C12.716 21.968 12.2 23.456 11.168 24.488C10.16 25.496 8.672 26 6.704 26H0.476V0.799998ZM5.984 11.06C6.776 11.06 7.364 10.856 7.748 10.448C8.156 10.04 8.36 9.356 8.36 8.396V6.992C8.36 6.08 8.192 5.42 7.856 5.012C7.544 4.604 7.04 4.4 6.344 4.4H4.436V11.06H5.984ZM6.704 22.4C7.4 22.4 7.916 22.22 8.252 21.86C8.588 21.476 8.756 20.828 8.756 19.916V17.72C8.756 16.568 8.552 15.776 8.144 15.344C7.76 14.888 7.112 14.66 6.2 14.66H4.436V22.4H6.704ZM20.7547 26.36C18.8107 26.36 17.3227 25.808 16.2907 24.704C15.2587 23.6 14.7427 22.04 14.7427 20.024V6.776C14.7427 4.76 15.2587 3.2 16.2907 2.096C17.3227 0.991999 18.8107 0.439999 20.7547 0.439999C22.6987 0.439999 24.1867 0.991999 25.2187 2.096C26.2507 3.2 26.7667 4.76 26.7667 6.776V20.024C26.7667 22.04 26.2507 23.6 25.2187 24.704C24.1867 25.808 22.6987 26.36 20.7547 26.36ZM20.7547 22.76C22.1227 22.76 22.8067 21.932 22.8067 20.276V6.524C22.8067 4.868 22.1227 4.04 20.7547 4.04C19.3867 4.04 18.7027 4.868 18.7027 6.524V20.276C18.7027 21.932 19.3867 22.76 20.7547 22.76ZM35.2048 26.36C33.2848 26.36 31.8208 25.82 30.8128 24.74C29.8048 23.636 29.3008 22.064 29.3008 20.024V0.799998H33.2607V20.312C33.2607 21.176 33.4288 21.8 33.7648 22.184C34.1248 22.568 34.6288 22.76 35.2768 22.76C35.9248 22.76 36.4168 22.568 36.7528 22.184C37.1128 21.8 37.2928 21.176 37.2928 20.312V0.799998H41.1088V20.024C41.1088 22.064 40.6048 23.636 39.5968 24.74C38.5888 25.82 37.1248 26.36 35.2048 26.36ZM43.9291 0.799998H47.8891V22.4H54.4051V26H43.9291V0.799998ZM61.8875 26.36C59.9435 26.36 58.4555 25.808 57.4235 24.704C56.3915 23.6 55.8755 22.04 55.8755 20.024V6.776C55.8755 4.76 56.3915 3.2 57.4235 2.096C58.4555 0.991999 59.9435 0.439999 61.8875 0.439999C63.8315 0.439999 65.3195 0.991999 66.3515 2.096C67.3835 3.2 67.8995 4.76 67.8995 6.776V20.024C67.8995 22.04 67.3835 23.6 66.3515 24.704C65.3195 25.808 63.8315 26.36 61.8875 26.36ZM61.8875 22.76C63.2555 22.76 63.9395 21.932 63.9395 20.276V6.524C63.9395 4.868 63.2555 4.04 61.8875 4.04C60.5195 4.04 59.8355 4.868 59.8355 6.524V20.276C59.8355 21.932 60.5195 22.76 61.8875 22.76ZM70.5776 0.799998H75.5456L79.3976 15.884H79.4696V0.799998H82.9976V26H78.9296L74.1776 7.604H74.1056V26H70.5776V0.799998Z" fill="#7F27FF"/>
</svg>
