<svg width="94" height="17" viewBox="0 0 94 17" fill="none" xmlns="http://www.w3.org/2000/svg">
<path d="M10.16 2.168C10.048 2.2 9.936 2.272 9.824 2.384C9.712 2.496 9.624 2.568 9.56 2.6L6.992 3.152C6.944 3.152 6.872 3.168 6.776 3.2C6.68 3.216 6.568 3.224 6.44 3.224C6.328 3.208 6.2 3.168 6.056 3.104C5.912 3.04 5.768 2.92 5.624 2.744C5.432 2.728 5.264 2.76 5.12 2.84C4.992 2.904 4.904 3 4.856 3.128C4.824 3.256 4.856 3.408 4.952 3.584C5.064 3.76 5.264 3.936 5.552 4.112C5.6 4.144 5.6 4.184 5.552 4.232C5.52 4.28 5.432 4.44 5.288 4.712C5.208 4.888 5.136 5.032 5.072 5.144C5.008 5.256 4.952 5.36 4.904 5.456C4.856 5.552 4.808 5.656 4.76 5.768C4.728 5.864 4.696 5.984 4.664 6.128C4.648 6.224 4.64 6.384 4.64 6.608C4.64 6.832 4.656 7.104 4.688 7.424C4.752 7.792 4.824 8.056 4.904 8.216C4.936 8.296 4.984 8.384 5.048 8.48C4.888 8.592 4.76 8.808 4.664 9.128C4.584 9.432 4.592 9.808 4.688 10.256C4.736 10.4 4.752 10.656 4.736 11.024C4.736 11.392 4.776 11.856 4.856 12.416C4.904 12.704 4.912 12.968 4.88 13.208C4.848 13.448 4.808 13.68 4.76 13.904C4.712 14.112 4.664 14.312 4.616 14.504C4.568 14.68 4.552 14.84 4.568 14.984C4.408 15.096 4.384 15.296 4.496 15.584L3.944 16.16H2.624C2.48 16.192 2.32 16.216 2.144 16.232C1.968 16.232 1.776 16.24 1.568 16.256C1.52 16.256 1.472 16.264 1.424 16.28C1.392 16.28 1.36 16.28 1.328 16.28L0.968 15.776C0.968 15.584 0.96 15.344 0.944 15.056C0.944 14.752 0.936 14.392 0.92 13.976C0.92 13.304 0.984 12.776 1.112 12.392C1.256 11.992 1.32 11.752 1.304 11.672C1.288 11.576 1.272 11.464 1.256 11.336C1.256 11.208 1.248 11.088 1.232 10.976C1.216 10.848 1.184 10.744 1.136 10.664C1.104 10.568 1.056 10.52 0.992 10.52L1.04 9.296C1.184 8.864 1.24 8.232 1.208 7.4C1.192 7.016 1.2 6.656 1.232 6.32C1.28 5.968 1.352 5.656 1.448 5.384V4.568C1.592 4.616 1.584 4.464 1.424 4.112C1.248 3.728 1.272 3.56 1.496 3.608C1.528 3.336 1.536 3.104 1.52 2.912C1.52 2.72 1.512 2.464 1.496 2.144L1.952 1.52C2.112 1.536 2.288 1.52 2.48 1.472C2.688 1.408 2.904 1.4 3.128 1.448C3.32 1.48 3.544 1.496 3.8 1.496C4.072 1.496 4.328 1.488 4.568 1.472C4.824 1.456 5.048 1.448 5.24 1.448C5.448 1.432 5.584 1.432 5.648 1.448C5.984 1.496 6.24 1.512 6.416 1.496C6.512 1.496 6.624 1.48 6.752 1.448C6.768 1.4 6.84 1.368 6.968 1.352C7.112 1.336 7.184 1.288 7.184 1.208L8.384 1.448C8.432 1.448 8.504 1.424 8.6 1.376C8.696 1.328 8.792 1.272 8.888 1.208C9 1.144 9.112 1.056 9.224 0.943999C9.448 0.943999 9.672 0.959999 9.896 0.991999C10.12 1.008 10.296 1.032 10.424 1.064L10.472 1.304C10.456 1.368 10.448 1.472 10.448 1.616C10.448 1.744 10.44 1.84 10.424 1.904L10.16 2.168ZM12.248 7.928C12.248 7.976 12.232 8.056 12.2 8.168C12.184 8.264 12.16 8.368 12.128 8.48C12.096 8.592 12.064 8.696 12.032 8.792C12.016 8.888 12.008 8.96 12.008 9.008C11.448 9.056 11.08 9.104 10.904 9.152C10.744 9.184 10.648 9.2 10.616 9.2H9.008C8.64 9.2 8.392 9.192 8.264 9.176C8.152 9.16 8.064 9.168 8 9.2L7.856 9.224L7.352 9.536L6.608 9.2C6.608 9.152 6.56 9.112 6.464 9.08C6.368 9.032 6.256 8.984 6.128 8.936C6.016 8.888 5.904 8.84 5.792 8.792C5.696 8.728 5.64 8.664 5.624 8.6L6.872 7.544C7.192 7.544 7.36 7.552 7.376 7.568L7.4 7.544C7.4 7.528 7.448 7.512 7.544 7.496C7.64 7.464 7.752 7.44 7.88 7.424L8.24 7.352C8.352 7.336 8.872 7.36 9.8 7.424C9.816 7.424 9.928 7.464 10.136 7.544C10.216 7.576 10.416 7.568 10.736 7.52C11.072 7.456 11.448 7.424 11.864 7.424L12.248 7.928ZM23.8344 8C23.8824 8.272 23.9064 8.512 23.9064 8.72C23.9064 8.912 23.8984 9.104 23.8824 9.296C23.8824 9.472 23.8904 9.648 23.9064 9.824C23.9384 9.984 24.0024 10.16 24.0984 10.352C24.0664 10.416 23.9864 10.544 23.8584 10.736C23.7464 10.912 23.6664 11.096 23.6184 11.288C23.5864 11.464 23.5624 11.6 23.5464 11.696C23.5304 11.792 23.5144 11.856 23.4984 11.888C23.5464 11.92 23.5864 11.984 23.6184 12.08C23.6344 12.16 23.6184 12.264 23.5704 12.392C23.5224 12.504 23.4264 12.664 23.2824 12.872C22.9944 13.256 22.8344 13.584 22.8024 13.856C22.7704 14.112 22.7064 14.312 22.6104 14.456C22.5784 14.488 22.4744 14.536 22.2984 14.6C22.1384 14.664 21.9464 14.744 21.7224 14.84C21.4984 14.92 21.2744 15.016 21.0504 15.128C20.8264 15.24 20.6504 15.352 20.5224 15.464C20.2504 15.512 20.0104 15.576 19.8024 15.656C19.5944 15.736 19.3384 15.792 19.0344 15.824C18.7464 15.888 18.4504 15.968 18.1464 16.064C17.8424 16.144 17.6744 16.184 17.6424 16.184C16.8904 16.184 16.4424 16.208 16.2984 16.256C16.1704 16.304 16.0184 16.328 15.8424 16.328L13.6584 15.536L12.6504 14.072C12.6504 13.688 12.6344 13.368 12.6024 13.112C12.5864 12.84 12.5624 12.608 12.5304 12.416C12.4984 12.208 12.4744 12.016 12.4584 11.84C12.4424 11.664 12.4424 11.464 12.4584 11.24C12.5064 11.192 12.5784 11.08 12.6744 10.904C12.7704 10.712 12.8664 10.496 12.9624 10.256C13.0744 10.016 13.1784 9.768 13.2744 9.512C13.3864 9.256 13.4664 9.04 13.5144 8.864C13.6424 8.496 13.7384 8.176 13.8024 7.904C13.8664 7.616 13.9144 7.36 13.9464 7.136C14.0744 7.056 14.1784 6.968 14.2584 6.872C14.3384 6.776 14.4184 6.696 14.4984 6.632C15.1544 6.248 15.7224 5.936 16.2024 5.696C16.6824 5.44 17.1304 5.28 17.5464 5.216L18.2664 5.168C18.3464 5.184 18.4184 5.2 18.4824 5.216C18.5464 5.232 18.6104 5.248 18.6744 5.264C18.7704 5.296 18.8584 5.32 18.9384 5.336C19.0184 5.336 19.0664 5.336 19.0824 5.336L19.5624 6.08C19.5624 6.224 19.5304 6.344 19.4664 6.44C19.4024 6.52 19.4664 6.576 19.6584 6.608C19.8664 6.656 19.9784 6.688 19.9944 6.704V6.728C20.2504 6.728 20.5144 6.672 20.7864 6.56C21.0584 6.432 21.3304 6.368 21.6024 6.368C21.6664 6.368 21.7784 6.4 21.9384 6.464C22.0984 6.512 22.2664 6.576 22.4424 6.656C22.6184 6.736 22.7784 6.816 22.9224 6.896C23.0824 6.96 23.1944 7.008 23.2584 7.04C23.2264 7.28 23.2344 7.448 23.2824 7.544C23.3304 7.64 23.3944 7.712 23.4744 7.76C23.5544 7.792 23.6264 7.824 23.6904 7.856C23.7704 7.872 23.8184 7.92 23.8344 8ZM19.5384 14C19.7784 13.84 20.0104 13.328 20.2344 12.464C20.3624 12 20.4664 11.656 20.5464 11.432C20.6424 11.192 20.6904 10.968 20.6904 10.76C20.6904 10.408 20.5704 9.992 20.3304 9.512C20.2024 9.256 20.1064 9.04 20.0424 8.864C19.9784 8.688 19.9304 8.512 19.8984 8.336C19.7704 8.272 19.6984 8.176 19.6824 8.048C19.6824 7.904 19.6184 7.76 19.4904 7.616C19.3304 7.488 19.2344 7.44 19.2024 7.472C19.1704 7.504 19.1384 7.52 19.1064 7.52H18.8904C18.7624 7.52 18.5864 7.544 18.3624 7.592C18.1544 7.64 17.9864 7.752 17.8584 7.928C17.6664 8.136 17.4984 8.304 17.3544 8.432C17.2264 8.544 17.1544 8.616 17.1384 8.648C16.9784 8.952 16.8344 9.216 16.7064 9.44C16.5784 9.648 16.4744 9.816 16.3944 9.944L16.1784 10.448C16.0824 10.688 16.0424 11.008 16.0584 11.408C16.0904 11.472 16.1224 11.616 16.1544 11.84C16.1864 12.048 16.0904 12.272 15.8664 12.512C15.8184 12.56 15.7704 12.656 15.7224 12.8C15.6744 12.928 15.6424 13.08 15.6264 13.256C15.6104 13.432 15.6264 13.608 15.6744 13.784C15.7384 13.96 15.8584 14.112 16.0344 14.24C16.2584 14.4 16.4904 14.56 16.7304 14.72C16.9704 14.864 17.1224 14.936 17.1864 14.936H17.4504C17.5464 14.936 17.6344 14.96 17.7144 15.008L19.5384 14ZM37.7094 8C37.7574 8.272 37.7814 8.512 37.7814 8.72C37.7814 8.912 37.7734 9.104 37.7574 9.296C37.7574 9.472 37.7654 9.648 37.7814 9.824C37.8134 9.984 37.8774 10.16 37.9734 10.352C37.9414 10.416 37.8614 10.544 37.7334 10.736C37.6214 10.912 37.5414 11.096 37.4934 11.288C37.4614 11.464 37.4374 11.6 37.4214 11.696C37.4054 11.792 37.3894 11.856 37.3734 11.888C37.4214 11.92 37.4614 11.984 37.4934 12.08C37.5094 12.16 37.4934 12.264 37.4454 12.392C37.3974 12.504 37.3014 12.664 37.1574 12.872C36.8694 13.256 36.7094 13.584 36.6774 13.856C36.6454 14.112 36.5814 14.312 36.4854 14.456C36.4534 14.488 36.3494 14.536 36.1734 14.6C36.0134 14.664 35.8214 14.744 35.5974 14.84C35.3734 14.92 35.1494 15.016 34.9254 15.128C34.7014 15.24 34.5254 15.352 34.3974 15.464C34.1254 15.512 33.8854 15.576 33.6774 15.656C33.4694 15.736 33.2134 15.792 32.9094 15.824C32.6214 15.888 32.3254 15.968 32.0214 16.064C31.7174 16.144 31.5494 16.184 31.5174 16.184C30.7654 16.184 30.3174 16.208 30.1734 16.256C30.0454 16.304 29.8934 16.328 29.7174 16.328L27.5334 15.536L26.5254 14.072C26.5254 13.688 26.5094 13.368 26.4774 13.112C26.4614 12.84 26.4374 12.608 26.4054 12.416C26.3734 12.208 26.3494 12.016 26.3334 11.84C26.3174 11.664 26.3174 11.464 26.3334 11.24C26.3814 11.192 26.4534 11.08 26.5494 10.904C26.6454 10.712 26.7414 10.496 26.8374 10.256C26.9494 10.016 27.0534 9.768 27.1494 9.512C27.2614 9.256 27.3414 9.04 27.3894 8.864C27.5174 8.496 27.6134 8.176 27.6774 7.904C27.7414 7.616 27.7894 7.36 27.8214 7.136C27.9494 7.056 28.0534 6.968 28.1334 6.872C28.2134 6.776 28.2934 6.696 28.3734 6.632C29.0294 6.248 29.5974 5.936 30.0774 5.696C30.5574 5.44 31.0054 5.28 31.4214 5.216L32.1414 5.168C32.2214 5.184 32.2934 5.2 32.3574 5.216C32.4214 5.232 32.4854 5.248 32.5494 5.264C32.6454 5.296 32.7334 5.32 32.8134 5.336C32.8934 5.336 32.9414 5.336 32.9574 5.336L33.4374 6.08C33.4374 6.224 33.4054 6.344 33.3414 6.44C33.2774 6.52 33.3414 6.576 33.5334 6.608C33.7414 6.656 33.8534 6.688 33.8694 6.704V6.728C34.1254 6.728 34.3894 6.672 34.6614 6.56C34.9334 6.432 35.2054 6.368 35.4774 6.368C35.5414 6.368 35.6534 6.4 35.8134 6.464C35.9734 6.512 36.1414 6.576 36.3174 6.656C36.4934 6.736 36.6534 6.816 36.7974 6.896C36.9574 6.96 37.0694 7.008 37.1334 7.04C37.1014 7.28 37.1094 7.448 37.1574 7.544C37.2054 7.64 37.2694 7.712 37.3494 7.76C37.4294 7.792 37.5014 7.824 37.5654 7.856C37.6454 7.872 37.6934 7.92 37.7094 8ZM33.4134 14C33.6534 13.84 33.8854 13.328 34.1094 12.464C34.2374 12 34.3414 11.656 34.4214 11.432C34.5174 11.192 34.5654 10.968 34.5654 10.76C34.5654 10.408 34.4454 9.992 34.2054 9.512C34.0774 9.256 33.9814 9.04 33.9174 8.864C33.8534 8.688 33.8054 8.512 33.7734 8.336C33.6454 8.272 33.5734 8.176 33.5574 8.048C33.5574 7.904 33.4934 7.76 33.3654 7.616C33.2054 7.488 33.1094 7.44 33.0774 7.472C33.0454 7.504 33.0134 7.52 32.9814 7.52H32.7654C32.6374 7.52 32.4614 7.544 32.2374 7.592C32.0294 7.64 31.8614 7.752 31.7334 7.928C31.5414 8.136 31.3734 8.304 31.2294 8.432C31.1014 8.544 31.0294 8.616 31.0134 8.648C30.8534 8.952 30.7094 9.216 30.5814 9.44C30.4534 9.648 30.3494 9.816 30.2694 9.944L30.0534 10.448C29.9574 10.688 29.9174 11.008 29.9334 11.408C29.9654 11.472 29.9974 11.616 30.0294 11.84C30.0614 12.048 29.9654 12.272 29.7414 12.512C29.6934 12.56 29.6454 12.656 29.5974 12.8C29.5494 12.928 29.5174 13.08 29.5014 13.256C29.4854 13.432 29.5014 13.608 29.5494 13.784C29.6134 13.96 29.7334 14.112 29.9094 14.24C30.1334 14.4 30.3654 14.56 30.6054 14.72C30.8454 14.864 30.9974 14.936 31.0614 14.936H31.3254C31.4214 14.936 31.5094 14.96 31.5894 15.008L33.4134 14ZM39.9924 7.712C39.9284 7.536 39.8804 7.304 39.8484 7.016C39.8164 6.712 39.7844 6.456 39.7524 6.248L40.2084 5.384C40.4964 5.336 40.6964 5.32 40.8084 5.336C40.9364 5.352 41.0324 5.376 41.0964 5.408C41.1924 5.392 41.3284 5.376 41.5044 5.36C41.6964 5.328 41.9844 5.28 42.3684 5.216C42.4004 4.944 42.4564 4.64 42.5364 4.304C42.6164 3.968 42.6724 3.592 42.7044 3.176L42.3684 2.84L42.3444 2.48L42.6084 1.856H45.4884L46.5684 1.904C46.6804 2.032 46.7284 2.184 46.7124 2.36C46.6964 2.52 46.6644 2.672 46.6164 2.816C46.5684 2.96 46.5204 3.08 46.4724 3.176C46.4404 3.256 46.4484 3.28 46.4964 3.248V4.736C46.4004 4.816 46.3284 4.912 46.2804 5.024C46.2324 5.12 46.1924 5.232 46.1604 5.36L46.2084 5.408L47.6004 5.36C47.6484 5.376 47.6964 5.392 47.7444 5.408C47.7924 5.424 47.8484 5.44 47.9124 5.456C48.1044 5.504 48.3524 5.528 48.6564 5.528L48.8724 5.768L48.6084 6.92C48.5124 6.92 48.3844 6.936 48.2244 6.968C48.0644 6.984 47.8964 7.008 47.7204 7.04C47.5604 7.056 47.4084 7.072 47.2644 7.088C47.1364 7.104 47.0484 7.112 47.0004 7.112L45.9924 7.4C45.9284 7.576 45.8804 7.728 45.8484 7.856C45.8324 7.968 45.8244 8.08 45.8244 8.192C45.8244 8.288 45.8244 8.4 45.8244 8.528C45.8404 8.64 45.8484 8.784 45.8484 8.96L45.6804 12.008C45.6324 12.28 45.6164 12.528 45.6324 12.752C45.6644 12.976 45.7044 13.168 45.7524 13.328C45.7844 13.408 45.8164 13.488 45.8484 13.568C45.8804 13.648 45.9124 13.728 45.9444 13.808L46.1604 14.432L46.2564 14.552L48.5844 13.832L49.4724 13.616L50.0004 14.096L49.4244 14.864L48.8724 15.152L48.3924 15.248L45.6324 16.472C45.5524 16.472 45.4884 16.464 45.4404 16.448C45.3604 16.448 45.2644 16.448 45.1524 16.448C45.0564 16.432 44.9444 16.416 44.8164 16.4C44.2404 16.352 43.8084 16.368 43.5204 16.448C43.5204 16 43.3444 15.696 42.9924 15.536C42.8164 15.424 42.6564 15.328 42.5124 15.248C42.3844 15.168 42.2644 15.104 42.1524 15.056C42.1524 14.784 42.1524 14.6 42.1524 14.504C42.1684 14.408 42.1524 14.28 42.1044 14.12C42.0724 14.04 42.0644 13.864 42.0804 13.592C42.0964 13.304 42.1124 12.944 42.1284 12.512C42.1604 12.064 42.1444 11.704 42.0804 11.432C42.0164 11.144 41.9204 11 41.7924 11C41.8084 10.792 41.8164 10.584 41.8164 10.376C41.8324 10.168 41.8484 9.984 41.8644 9.824C41.8804 9.744 41.8884 9.656 41.8884 9.56C41.8884 9.464 41.8884 9.376 41.8884 9.296C41.9204 9.232 41.9444 9.184 41.9604 9.152C41.9764 9.104 41.9924 9.072 42.0084 9.056C42.0244 9.024 42.0964 8.984 42.2244 8.936C42.3684 8.872 42.4964 8.704 42.6084 8.432C42.9764 8.176 43.1364 7.944 43.0884 7.736C43.0404 7.528 42.7604 7.384 42.2484 7.304C42.1364 7.32 42.0404 7.352 41.9604 7.4C41.8964 7.432 41.8644 7.52 41.8644 7.664L40.4244 7.976L39.9924 7.712ZM52.2236 15.44C52.2396 15.36 52.2476 15.288 52.2476 15.224C52.2636 15.144 52.2796 15.064 52.2956 14.984C52.3916 14.312 52.4396 13.856 52.4396 13.616C52.4396 13.568 52.4236 13.488 52.3916 13.376C52.3756 13.264 52.3596 13.184 52.3436 13.136L52.5596 7.784C52.4796 7.672 52.4636 7.528 52.5116 7.352C52.5596 7.16 52.6316 7.04 52.7276 6.992C52.7916 6.768 52.8796 6.512 52.9916 6.224C53.1196 5.936 53.1676 5.608 53.1356 5.24C53.1196 5.064 53.1356 4.92 53.1836 4.808C53.2316 4.68 53.2716 4.6 53.3036 4.568L53.4956 4.376C53.6236 4.248 53.6956 4.136 53.7116 4.04C53.7276 3.928 53.7116 3.824 53.6636 3.728C53.6156 3.632 53.5516 3.56 53.4716 3.512C53.4076 3.448 53.3436 3.4 53.2796 3.368C53.2316 3.32 53.2076 3.288 53.2076 3.272C53.2396 3.176 53.2556 3.096 53.2556 3.032C53.2556 2.968 53.2076 2.896 53.1116 2.816L53.1596 2.24C53.2396 2.128 53.3836 2.072 53.5916 2.072C53.8156 2.056 53.9916 2.048 54.1196 2.048C54.1676 2.048 54.2476 2.048 54.3596 2.048C54.4716 2.032 54.5996 2.024 54.7436 2.024L55.1756 2C55.2556 1.984 55.3196 1.976 55.3676 1.976C55.4316 1.976 55.4876 1.976 55.5356 1.976L55.7996 1.856C55.9116 1.792 55.9996 1.76 56.0636 1.76C56.1116 1.76 56.1996 1.784 56.3276 1.832C56.4716 1.864 56.6236 1.928 56.7836 2.024L56.6636 4.352L56.4236 6.392C56.4236 6.456 56.3836 6.592 56.3036 6.8C56.2236 6.992 56.1436 7.152 56.0636 7.28C56.0316 7.312 56.0156 7.376 56.0156 7.472C56.0156 7.552 56.0156 7.648 56.0156 7.76C56.0316 7.856 56.0396 7.952 56.0396 8.048C56.0556 8.144 56.0556 8.216 56.0396 8.264L55.8716 10.016C55.8716 10.048 55.8556 10.08 55.8236 10.112C55.8076 10.128 55.7836 10.184 55.7516 10.28C55.7356 10.36 55.7116 10.48 55.6796 10.64C55.6476 10.8 55.6236 11.024 55.6076 11.312C55.5756 11.92 55.5436 12.344 55.5116 12.584C55.4796 12.824 55.4636 12.96 55.4636 12.992C55.4636 13.152 55.5116 13.264 55.6076 13.328C55.7196 13.392 55.7756 13.488 55.7756 13.616C55.7116 13.68 55.7276 13.8 55.8236 13.976C55.9356 14.152 56.1276 14.264 56.3996 14.312C56.6716 14.36 56.9756 14.344 57.3116 14.264C57.6476 14.168 58.0156 14.104 58.4156 14.072C58.5596 14.072 58.6476 14.088 58.6796 14.12C58.7276 14.152 58.7676 14.192 58.7996 14.24C58.8476 14.272 58.9196 14.312 59.0156 14.36C59.1276 14.392 59.3276 14.416 59.6156 14.432C59.6796 14.432 59.7996 14.384 59.9756 14.288C60.1676 14.192 60.2476 14.04 60.2156 13.832C60.3436 13.832 60.5036 13.808 60.6956 13.76C60.9036 13.712 61.1116 13.672 61.3196 13.64C61.5276 13.608 61.7116 13.608 61.8716 13.64C62.0316 13.656 62.1356 13.736 62.1836 13.88L62.2796 14.24C62.2636 14.272 62.2556 14.312 62.2556 14.36C62.2556 14.392 62.2476 14.432 62.2316 14.48C62.2156 14.56 62.1916 14.672 62.1596 14.816C62.1276 14.944 62.0956 15.096 62.0636 15.272C61.7276 15.304 61.5436 15.312 61.5116 15.296C61.4796 15.28 61.4476 15.272 61.4156 15.272C61.3676 15.272 61.2876 15.304 61.1756 15.368C61.0796 15.416 60.9996 15.456 60.9356 15.488C60.8396 15.504 60.6796 15.528 60.4556 15.56C60.2476 15.592 59.9836 15.624 59.6636 15.656C59.4876 15.688 59.3356 15.712 59.2076 15.728C59.0956 15.728 58.9996 15.736 58.9196 15.752C58.8556 15.768 58.7756 15.776 58.6796 15.776C58.6636 15.776 58.6076 15.784 58.5116 15.8C58.4156 15.8 58.3036 15.8 58.1756 15.8H57.4556C57.1356 15.768 56.9036 15.744 56.7596 15.728C56.6316 15.712 56.5276 15.712 56.4476 15.728C56.3836 15.728 56.3196 15.752 56.2556 15.8C56.2076 15.832 56.0956 15.896 55.9196 15.992C55.8556 16.008 55.7356 16.016 55.5596 16.016H54.5276C54.3996 16 54.2956 15.992 54.2156 15.992C54.1516 15.976 54.0796 15.96 53.9996 15.944L53.0636 16.232C52.8396 16.2 52.6636 16.104 52.5356 15.944C52.4076 15.784 52.3036 15.616 52.2236 15.44ZM72.4316 12.992L71.3516 12.344L70.9436 11.456L69.3836 9.848L69.2156 9.488L68.3276 8.336L68.1836 7.904L68.1356 8.072C68.1196 8.136 68.1116 8.28 68.1116 8.504C68.1276 8.728 68.0876 8.888 67.9916 8.984C67.9436 9.048 67.8876 9.176 67.8236 9.368C67.7596 9.544 67.7196 9.664 67.7036 9.728L67.6316 10.568C67.6476 10.6 67.6636 10.624 67.6796 10.64C67.7116 10.656 67.7356 10.696 67.7516 10.76C67.7676 10.824 67.7756 10.928 67.7756 11.072C67.7756 11.2 67.7516 11.392 67.7036 11.648C67.6076 12.144 67.5676 12.528 67.5836 12.8C67.6156 13.056 67.6316 13.2 67.6316 13.232C67.6316 13.296 67.6396 13.424 67.6556 13.616C67.6876 13.792 67.6716 14.04 67.6076 14.36C67.5276 14.968 67.5116 15.456 67.5596 15.824L67.2956 15.968C67.2316 15.952 67.1356 15.944 67.0076 15.944C66.8796 15.944 66.7356 15.952 66.5756 15.968C66.4316 15.968 66.2796 15.976 66.1196 15.992C65.9596 15.992 65.8236 15.992 65.7116 15.992H65.3996L64.3916 16.232L63.7676 15.896C63.7676 15.64 63.7996 15.352 63.8636 15.032C63.9116 14.712 63.9516 14.432 63.9836 14.192C64.0156 13.952 64.0316 13.768 64.0316 13.64C64.0316 13.608 64.0156 13.536 63.9836 13.424C63.9516 13.296 63.9276 13.208 63.9116 13.16L64.0796 9.536C64.1276 9.536 64.1596 9.48 64.1756 9.368C64.1916 9.256 64.1996 9.136 64.1996 9.008C64.1996 8.88 64.1916 8.76 64.1756 8.648C64.1596 8.52 64.1436 8.44 64.1276 8.408C64.1116 8.392 64.1196 8.328 64.1516 8.216C64.1996 8.104 64.2556 7.984 64.3196 7.856L64.4876 7.496C64.5196 7.432 64.5436 7.392 64.5596 7.376C64.5916 7.344 64.6156 7.32 64.6316 7.304C64.6636 7.208 64.6716 7.128 64.6556 7.064C64.6396 7 64.6156 6.928 64.5836 6.848C64.5676 6.768 64.5516 6.656 64.5356 6.512C64.5196 6.368 64.5276 6.16 64.5596 5.888C64.6236 5.344 64.6716 4.896 64.7036 4.544C64.7516 4.176 64.7756 3.944 64.7756 3.848V3.296C64.7436 3.152 64.7276 3.016 64.7276 2.888C64.7436 2.744 64.6796 2.632 64.5356 2.552L64.5596 2.24C64.6236 2.096 64.8716 2.024 65.3036 2.024H66.5756C66.6716 2.024 66.7916 1.976 66.9356 1.88C67.0956 1.784 67.2716 1.728 67.4636 1.712C67.5436 1.68 67.6396 1.64 67.7516 1.592C67.8636 1.528 67.9436 1.496 67.9916 1.496C68.0556 1.496 68.1356 1.512 68.2316 1.544C68.3436 1.576 68.4556 1.64 68.5676 1.736V2.24L69.8636 4.808L70.2476 6.824L71.0636 8.144L71.8316 9.824L72.1916 9.92L72.9836 9.2C73.0156 9.12 73.0476 9.032 73.0796 8.936C73.1276 8.84 73.1836 8.752 73.2476 8.672C73.3436 8.512 73.4556 8.336 73.5836 8.144C73.7276 7.952 73.8956 7.744 74.0876 7.52C74.8556 6.688 75.1916 6.12 75.0956 5.816L76.1276 4.136C76.3996 4.248 76.6236 4.224 76.7996 4.064C76.9916 3.888 77.1276 3.496 77.2076 2.888C77.2076 2.856 77.1996 2.808 77.1836 2.744C77.1676 2.664 77.1436 2.592 77.1116 2.528C77.3196 2.432 77.4396 2.336 77.4716 2.24C77.5036 2.144 77.5196 2 77.5196 1.808C77.7116 1.728 77.8796 1.68 78.0236 1.664C78.1836 1.632 78.3516 1.592 78.5276 1.544L80.1596 2.528C80.1436 2.672 80.1276 2.824 80.1116 2.984C80.0956 3.144 80.0716 3.312 80.0396 3.488C80.0076 3.712 79.9756 3.952 79.9436 4.208C79.9116 4.448 79.8796 4.688 79.8476 4.928C79.8316 5.152 79.8076 5.36 79.7756 5.552C79.7596 5.744 79.7436 5.896 79.7276 6.008C79.6956 6.168 79.6636 6.448 79.6316 6.848C79.5996 7.232 79.5596 7.76 79.5116 8.432C79.4636 9.76 79.6316 10.528 80.0156 10.736C80.0156 10.848 80.0076 11.096 79.9916 11.48C79.9916 11.864 79.9836 12.416 79.9676 13.136C79.9516 13.488 79.9436 13.8 79.9436 14.072C79.9436 14.344 79.9436 14.584 79.9436 14.792V15.536C79.5116 15.648 79.0556 15.752 78.5756 15.848C78.1116 15.944 77.7436 15.992 77.4716 15.992C77.3596 15.992 77.2476 15.952 77.1356 15.872C77.0236 15.792 76.9516 15.664 76.9196 15.488C77.0316 15.392 77.0876 15.344 77.0876 15.344C77.1036 15.344 77.0716 15.304 76.9916 15.224V12.392L77.1596 12.008H76.9916V10.904C76.9916 10.728 76.9836 10.488 76.9676 10.184C76.9516 9.88 76.9276 9.496 76.8956 9.032C76.8476 8.568 76.8156 8.216 76.7996 7.976C76.7836 7.72 76.7756 7.576 76.7756 7.544C76.7756 7.496 76.8156 7.392 76.8956 7.232C76.9916 7.056 77.0796 6.912 77.1596 6.8C77.1916 6.72 77.1996 6.64 77.1836 6.56C77.1836 6.464 77.1916 6.384 77.2076 6.32C77.2076 6.256 77.2396 6.2 77.3036 6.152C77.3836 6.088 77.4396 6.04 77.4716 6.008C77.4396 5.912 77.3996 5.808 77.3516 5.696C77.3196 5.584 77.3036 5.512 77.3036 5.48C76.5356 5.128 76.3036 5.392 76.6076 6.272L76.0556 7.472L74.3996 9.92L72.9116 12.776L72.4316 12.992ZM83.6829 14.216L86.4189 13.808L89.0349 13.04L89.6589 12.032L89.3949 11L88.7709 10.232C88.5949 10.12 88.4109 10.016 88.2189 9.92C88.0429 9.808 87.8589 9.728 87.6669 9.68C87.4909 9.616 87.3069 9.592 87.1149 9.608C86.9389 9.608 86.7629 9.664 86.5869 9.776L85.9869 10.208L83.9949 9.272L83.2749 7.424L83.8989 4.328L85.0029 2.864C85.0509 2.976 85.1469 3.016 85.2909 2.984C85.4349 2.952 85.5789 2.888 85.7229 2.792C85.8669 2.696 85.9869 2.584 86.0829 2.456C86.1789 2.312 86.2029 2.184 86.1549 2.072C86.4269 1.992 86.7389 1.912 87.0909 1.832C87.4429 1.736 87.7469 1.6 88.0029 1.424L91.0989 0.775999L91.6029 0.727999L92.0349 1.232L91.6509 2.264L90.7629 2.504L89.6109 2.624L87.8589 3.512L87.0429 4.568C86.7869 4.808 86.6589 5.072 86.6589 5.36C86.6749 5.632 86.7469 5.928 86.8749 6.248C87.0509 6.616 87.1789 6.856 87.2589 6.968C87.3549 7.064 87.4749 7.152 87.6189 7.232L89.0349 7.712C89.1949 7.84 89.3389 7.944 89.4669 8.024C89.6109 8.088 89.7709 8.128 89.9469 8.144C90.1229 8.16 90.3709 8.176 90.6909 8.192C91.0269 8.208 91.4509 8.232 91.9629 8.264C92.1069 8.536 92.2749 8.776 92.4669 8.984C92.6589 9.176 92.8429 9.432 93.0189 9.752L93.4989 10.832L92.7789 13.232L92.2029 13.856L91.0269 15.56H90.4269C90.2189 15.56 89.9629 15.568 89.6589 15.584C89.3709 15.584 89.0269 15.584 88.6269 15.584C88.2269 15.584 87.8749 15.624 87.5709 15.704C87.2669 15.784 86.9949 15.872 86.7549 15.968C86.5149 16.048 86.3069 16.12 86.1309 16.184C85.9549 16.248 85.7949 16.272 85.6509 16.256L84.7869 15.992L83.3469 16.232L82.8429 15.2L82.9869 14.6L83.6829 14.216Z" fill="#5A9047"/>
</svg>
