<?xml version="1.0" encoding="UTF-8" standalone="no"?>
<!-- Created with Inkscape (http://www.inkscape.org/) -->

<svg
   width="25.948023mm"
   height="26.921133mm"
   viewBox="0 0 25.948023 26.921133"
   version="1.1"
   id="svg1"
   xmlns="http://www.w3.org/2000/svg"
   xmlns:svg="http://www.w3.org/2000/svg">
  <defs
     id="defs1" />
  <g
     id="layer1"
     transform="translate(-106.59706,-86.697351)">
    <path
       style="font-size:50.8px;font-family:'DM Sans 9pt ExtraBold';-inkscape-font-specification:'DM Sans 9pt ExtraBold, Normal';letter-spacing:-2.38125px;fill:#ff6f61;stroke-width:0.264583"
       d="m 100.56797,132.84341 q -3.860797,0 -6.857997,-1.6256 -2.9464,-1.6764 -4.6228,-4.6228 -1.6764,-2.9972 -1.6764,-6.9088 0,-3.9624 1.6256,-7.0104 1.6764,-3.0988 4.6228,-4.8768 2.9972,-1.778 6.959597,-1.778 3.81,0 6.6548,1.6764 2.8956,1.6764 4.4704,4.5212 1.6256,2.8448 1.6256,6.5532 0,0.508 -0.0508,1.1176 0,0.6096 -0.1016,1.3208 H 94.471973 q 0.1016,1.524 0.7112,2.6924 0.762,1.524 2.1336,2.3368 1.3716,0.8128 3.200397,0.8128 1.8288,0 2.9972,-0.762 1.2192,-0.762 1.8288,-1.9812 h 7.2644 q -0.7112,2.3876 -2.4384,4.318 -1.6764,1.9304 -4.1148,3.0988 -2.4384,1.1176 -5.4864,1.1176 z m -5.994397,-15.9512 h 11.582397 q -0.1524,-2.3368 -1.7272,-3.7084 -1.524,-1.4224 -3.81,-1.4224 -1.727197,0 -3.149597,0.8128 -1.4224,0.8128 -2.2352,2.3876 -0.4572,0.8636 -0.6604,1.9304 z"
       id="text1"
       transform="rotate(-10)"
       aria-label="e" />
  </g>
</svg>
