<?xml version="1.0" encoding="UTF-8" standalone="no"?>
<!-- Created with Inkscape (http://www.inkscape.org/) -->

<svg
   width="25.948025mm"
   height="26.921135mm"
   viewBox="0 0 25.948025 26.921135"
   version="1.1"
   id="svg1"
   sodipodi:docname="logo_primary.svg"
   inkscape:version="1.3.2 (091e20e, 2023-11-25)"
   xmlns:inkscape="http://www.inkscape.org/namespaces/inkscape"
   xmlns:sodipodi="http://sodipodi.sourceforge.net/DTD/sodipodi-0.dtd"
   xmlns="http://www.w3.org/2000/svg"
   xmlns:svg="http://www.w3.org/2000/svg">
  <sodipodi:namedview
     id="namedview1"
     pagecolor="#ffffff"
     bordercolor="#000000"
     borderopacity="0.25"
     inkscape:showpageshadow="2"
     inkscape:pageopacity="0.0"
     inkscape:pagecheckerboard="0"
     inkscape:deskcolor="#d1d1d1"
     inkscape:document-units="mm"
     inkscape:zoom="0.66937631"
     inkscape:cx="-13.445352"
     inkscape:cy="-38.095164"
     inkscape:window-width="1440"
     inkscape:window-height="900"
     inkscape:window-x="0"
     inkscape:window-y="0"
     inkscape:window-maximized="0"
     inkscape:current-layer="layer1" />
  <defs
     id="defs1">
    <rect
       x="227.05222"
       y="337.43729"
       width="379.8367"
       height="209.56458"
       id="rect1" />
  </defs>
  <g
     inkscape:label="Layer 1"
     inkscape:groupmode="layer"
     id="layer1"
     transform="translate(-75.636913,-74.108753)">
    <text
       xml:space="preserve"
       transform="scale(0.26458333)"
       id="text1"
       style="font-size:96px;font-family:'DM Sans 9pt ExtraBold';-inkscape-font-specification:'DM Sans 9pt ExtraBold, Normal';letter-spacing:-4px;white-space:pre;shape-inside:url(#rect1);fill:#eee0c9" />
    <path
       d="m 72.264171,115.06989 q -3.8608,0 -6.858,-1.6256 -2.9464,-1.6764 -4.6228,-4.6228 -1.6764,-2.9972 -1.6764,-6.9088 0,-3.962401 1.6256,-7.010401 1.6764,-3.0988 4.6228,-4.8768 2.9972,-1.778 6.9596,-1.778 3.81,0 6.654799,1.6764 2.8956,1.6764 4.4704,4.5212 1.6256,2.8448 1.6256,6.553201 0,0.508 -0.0508,1.1176 0,0.6096 -0.1016,1.3208 H 66.168171 q 0.1016,1.524 0.7112,2.6924 0.762,1.524 2.1336,2.3368 1.3716,0.8128 3.2004,0.8128 1.8288,0 2.9972,-0.762 1.2192,-0.762 1.8288,-1.9812 h 7.264399 q -0.7112,2.3876 -2.4384,4.318 -1.6764,1.9304 -4.114799,3.0988 -2.4384,1.1176 -5.4864,1.1176 z m -5.9944,-15.951201 h 11.5824 q -0.1524,-2.3368 -1.7272,-3.7084 -1.524,-1.4224 -3.81,-1.4224 -1.7272,0 -3.1496,0.8128 -1.4224,0.8128 -2.2352,2.3876 -0.4572,0.8636 -0.6604,1.9304 z"
       id="text2"
       style="font-size:50.8px;font-family:'DM Sans 9pt ExtraBold';-inkscape-font-specification:'DM Sans 9pt ExtraBold, Normal';letter-spacing:-2.38125px;fill:#008dda;stroke-width:0.264583"
       transform="rotate(-10)"
       aria-label="e" />
  </g>
</svg>
