<?xml version="1.0" encoding="UTF-8" standalone="no"?>
<!-- Created with Inkscape (http://www.inkscape.org/) -->

<svg
   width="25.948029mm"
   height="26.921135mm"
   viewBox="0 0 25.948029 26.921135"
   version="1.1"
   id="svg1"
   xmlns="http://www.w3.org/2000/svg"
   xmlns:svg="http://www.w3.org/2000/svg">
  <defs
     id="defs1" />
  <g
     id="layer1"
     transform="translate(-95.325324,-85.232989)">
    <path
       style="font-size:50.8px;font-family:'DM Sans 9pt ExtraBold';-inkscape-font-specification:'DM Sans 9pt ExtraBold, Normal';letter-spacing:-2.38125px;fill:#eee0c9;stroke-width:0.264583"
       d="m 89.721766,129.44398 q -3.8608,0 -6.857999,-1.6256 -2.9464,-1.6764 -4.6228,-4.6228 -1.6764,-2.9972 -1.6764,-6.9088 0,-3.9624 1.6256,-7.0104 1.6764,-3.0988 4.6228,-4.8768 2.997199,-1.778 6.959599,-1.778 3.81,0 6.6548,1.6764 2.8956,1.6764 4.470404,4.5212 1.6256,2.8448 1.6256,6.5532 0,0.508 -0.0508,1.1176 0,0.6096 -0.1016,1.3208 H 83.625767 q 0.1016,1.524 0.711199,2.6924 0.762,1.524 2.1336,2.3368 1.3716,0.8128 3.2004,0.8128 1.8288,0 2.9972,-0.762 1.2192,-0.762 1.8288,-1.9812 h 7.264404 q -0.7112,2.3876 -2.438404,4.318 -1.6764,1.9304 -4.1148,3.0988 -2.4384,1.1176 -5.4864,1.1176 z m -5.994399,-15.9512 h 11.582399 q -0.1524,-2.3368 -1.7272,-3.7084 -1.524,-1.4224 -3.81,-1.4224 -1.7272,0 -3.1496,0.8128 -1.4224,0.8128 -2.2352,2.3876 -0.457199,0.8636 -0.660399,1.9304 z"
       id="text1"
       transform="rotate(-10)"
       aria-label="e" />
  </g>
</svg>
