<svg width="396" height="283" viewBox="0 0 396 283" fill="none" xmlns="http://www.w3.org/2000/svg">
<g clip-path="url(#clip0_57_75)" filter="url(#filter0_b_57_75)">
<path d="M9.84119 282.312C9.84119 282.694 10.1848 283 10.6127 283H395.228C395.656 283 396 282.694 396 282.312C396 281.931 395.656 281.624 395.228 281.624H10.6127C10.1848 281.624 9.84119 281.931 9.84119 282.312Z" fill="#2F2E43"/>
<path d="M209.286 214.428C208.23 220.135 202.659 224.503 195.964 224.503C189.268 224.503 183.698 220.135 182.641 214.428H148.558V280.289H243.37V214.428L209.286 214.428Z" fill="#B6B3C5"/>
<path d="M159.582 280.043H150.211V281.518H159.582V280.043Z" fill="#B6B3C5"/>
<path d="M242.543 280.289H233.172V281.763H242.543V280.289Z" fill="#B6B3C5"/>
<path d="M386.642 216.148H5.28571C2.37114 216.148 0 214.034 0 211.435V17.379C0 14.7804 2.37114 12.6661 5.28571 12.6661H386.642C389.556 12.6661 391.927 14.7804 391.927 17.379V211.435C391.927 214.034 389.556 216.148 386.642 216.148Z" fill="#2F2E41"/>
<path d="M382.832 21.0217H9.64661V208.775H382.832V21.0217Z" fill="#EEE0C9"/>
<path d="M338.496 93.1266H318.133C316.363 93.1266 314.924 91.8432 314.924 90.2654C314.924 88.6876 316.363 87.4042 318.133 87.4042H338.496C340.265 87.4042 341.705 88.6876 341.705 90.2654C341.705 91.8432 340.265 93.1266 338.496 93.1266Z" fill="#D1D1D2"/>
<path d="M361.914 93.1266H352.411C350.641 93.1266 349.202 91.8432 349.202 90.2654C349.202 88.6876 350.641 87.4042 352.411 87.4042H361.914C363.683 87.4042 365.123 88.6876 365.123 90.2654C365.123 91.8432 363.683 93.1266 361.914 93.1266Z" fill="#D1D1D2"/>
<path d="M134.619 95.3118H72.6383C69.4744 95.3118 66.9003 93.0165 66.9003 90.1954C66.9003 87.3743 69.4744 85.079 72.6383 85.079H134.619C137.783 85.079 140.357 87.3743 140.357 90.1954C140.357 93.0165 137.783 95.3118 134.619 95.3118Z" fill="#FF6F61"/>
<path d="M101.015 108.961H71.1449C69.2163 108.961 67.6471 107.562 67.6471 105.843C67.6471 104.123 69.2163 102.724 71.1449 102.724H101.015C102.944 102.724 104.513 104.123 104.513 105.843C104.513 107.562 102.944 108.961 101.015 108.961Z" fill="#D1D1D2"/>
<path d="M265.675 121.28H70.3981C68.4694 121.28 66.9003 119.88 66.9003 118.161C66.9003 116.441 68.4694 115.042 70.3981 115.042H265.675C267.604 115.042 269.173 116.441 269.173 118.161C269.173 119.88 267.604 121.28 265.675 121.28Z" fill="#D1D1D2"/>
<path d="M248.873 129.602H70.3981C68.4694 129.602 66.9003 128.203 66.9003 126.484C66.9003 124.764 68.4694 123.365 70.3981 123.365H248.873C250.801 123.365 252.371 124.764 252.371 126.484C252.371 128.203 250.801 129.602 248.873 129.602Z" fill="#D1D1D2"/>
<path d="M361.33 249.743L352.372 258.129L342.825 250.26L351.783 241.873L361.33 249.743Z" fill="#ED9DA0"/>
<path d="M368.485 258.332L349.444 276.159C347.816 277.682 345.784 278.886 343.566 279.64L338.257 281.444C337.16 281.817 335.896 281.601 335.037 280.894C334.031 280.064 333.776 278.735 334.418 277.662L339.524 269.121L344.973 251.801L345.032 251.834C346.515 252.648 348.763 253.869 348.923 253.921C351.745 254.01 353.765 253.377 354.927 252.041C356.955 249.709 355.669 245.988 355.656 245.95L355.645 245.922L355.671 245.902C356.262 245.452 356.885 245.272 357.522 245.367C358.874 245.568 359.841 246.923 359.983 247.131C361.252 247.083 365.148 249.804 365.462 250.024C367.374 250.02 368.777 250.424 369.629 251.227C370.375 251.928 370.699 252.924 370.594 254.186C370.467 255.705 369.718 257.177 368.485 258.332Z" fill="#090814"/>
<path d="M350.988 259.398H337.897V270.898H350.988V259.398Z" fill="#ED9DA0"/>
<path d="M348.754 281.359H320.927C318.548 281.359 316.158 280.881 314.015 279.976L308.885 277.81C307.824 277.362 307.138 276.404 307.138 275.37C307.138 274.158 308.067 273.085 309.398 272.762L319.981 270.189L338.087 261.829L338.101 261.889C338.439 263.396 338.964 265.671 339.031 265.809C340.887 267.678 342.795 268.539 344.7 268.369C348.023 268.073 350.232 264.703 350.254 264.669L350.271 264.643L350.304 264.646C351.083 264.716 351.658 264.992 352.015 265.465C352.773 266.469 352.311 268.016 352.235 268.249C353.143 269.029 353.55 273.387 353.581 273.738C354.894 274.961 355.518 276.136 355.435 277.231C355.363 278.188 354.759 279.077 353.639 279.874C352.292 280.832 350.557 281.359 348.754 281.359Z" fill="#090814"/>
<path d="M352.542 114.56L306.154 114.58L290.692 200.59L337.08 249.75L352.542 237.46L315.883 200.59L352.542 114.56Z" fill="#008DDA"/>
<path d="M325.124 127.239L352.542 114.56V262.04L337.08 262.419L325.124 127.239Z" fill="#008DDA"/>
<path d="M297.66 149.051L297.987 135.626L289.196 135.456L288.869 148.881C287.229 150.239 286.146 152.348 286.088 154.74C285.986 158.925 289.052 162.378 292.937 162.453C296.821 162.528 300.052 159.197 300.154 155.012C300.212 152.62 299.233 150.471 297.66 149.051Z" fill="#ED9DA0"/>
<path d="M339.348 17.9371C339.348 17.9371 351.968 17.9128 347.254 7.07091C342.539 -3.771 333.761 1.08351 333.761 1.08351C333.761 1.08351 330.062 2.82558 330.825 6.71234" fill="#090814"/>
<path d="M340.611 23.1377C340.611 14.8251 333.054 8.08646 323.731 8.08646C314.408 8.08646 306.85 14.8251 306.85 23.1377C306.85 29.8792 311.822 35.5848 318.673 37.5009L321.937 56.7304L338.573 44.3694C338.573 44.3694 334.979 40.2879 333.051 35.6856C337.607 32.9901 340.611 28.3776 340.611 23.1377Z" fill="#ED9DA0"/>
<path d="M331.841 35.8523C331.841 35.8523 334.083 28.1892 330.417 24.6657C326.76 21.1502 326.288 26.6202 326.288 26.6202L323.649 26.1087C323.649 26.1087 324.108 20.7892 318.945 19.8685L322.272 13.526C322.272 13.526 309.534 15.7313 309.183 14.6312C306.42 5.97558 332.775 -1.41839 340.056 11.7869C351.379 32.3256 331.841 35.8523 331.841 35.8523Z" fill="#090814"/>
<path d="M316.931 49.261C304.676 51.3962 295.477 60.4945 294.362 71.5838L286.734 147.422H300.12L316.931 49.261Z" fill="#FF6F61"/>
<path d="M304.274 109.684L302.189 131.097L358.78 116.256L351.884 100.78L364.724 74.4903L338.514 40.9926L317.589 42.2647L309.505 51.5932" fill="#FF6F61"/>
<path d="M350.423 130.02L358.316 118.583L350.827 114.474L342.934 125.911C340.749 126.343 338.619 127.675 337.213 129.712C334.753 133.277 335.44 137.639 338.749 139.454C342.058 141.27 346.735 139.852 349.195 136.287C350.601 134.25 350.975 131.954 350.423 130.02Z" fill="#ED9DA0"/>
<path d="M334.234 41.4167L338.797 41.2479L346.598 46.5049C355.842 47.9105 358.523 48.3046 361.355 53.7492C362.545 56.037 363.334 58.4743 363.776 60.9653L370.376 98.2355L353.786 133.853L342.793 122.829L354.545 94.9819L352.593 88.3209" fill="#FF6F61"/>
</g>
<defs>
<filter id="filter0_b_57_75" x="-4" y="-4" width="404" height="291" filterUnits="userSpaceOnUse" color-interpolation-filters="sRGB">
<feFlood flood-opacity="0" result="BackgroundImageFix"/>
<feGaussianBlur in="BackgroundImageFix" stdDeviation="2"/>
<feComposite in2="SourceAlpha" operator="in" result="effect1_backgroundBlur_57_75"/>
<feBlend mode="normal" in="SourceGraphic" in2="effect1_backgroundBlur_57_75" result="shape"/>
</filter>
<clipPath id="clip0_57_75">
<rect width="396" height="283" fill="white"/>
</clipPath>
</defs>
</svg>
