<?xml version="1.0" encoding="UTF-8" standalone="no"?>
<!-- Created with Inkscape (http://www.inkscape.org/) -->

<svg
   width="141.94539mm"
   height="37.1856mm"
   viewBox="0 0 141.94539 37.1856"
   version="1.1"
   id="svg1"
   xmlns="http://www.w3.org/2000/svg"
   xmlns:svg="http://www.w3.org/2000/svg">
  <defs
     id="defs1" />
  <g
     id="layer1"
     transform="translate(-31.319682,-49.363324)">
    <path
       d="m 44.476882,86.548923 q -3.8608,0 -6.858,-1.6256 -2.9464,-1.6764 -4.6228,-4.622799 -1.6764,-2.9972 -1.6764,-6.9088 0,-3.9624 1.6256,-7.0104 1.6764,-3.0988 4.6228,-4.8768 2.9972,-1.778 6.9596,-1.778 3.81,0 6.6548,1.6764 2.8956,1.6764 4.4704,4.5212 1.6256,2.8448 1.6256,6.5532 0,0.508 -0.0508,1.1176 0,0.6096 -0.1016,1.3208 h -18.7452 q 0.1016,1.524 0.7112,2.6924 0.762,1.524 2.1336,2.3368 1.3716,0.8128 3.2004,0.8128 1.8288,0 2.9972,-0.762 1.2192,-0.762 1.8288,-1.9812 h 7.2644 q -0.7112,2.3876 -2.4384,4.317999 -1.6764,1.9304 -4.1148,3.0988 -2.4384,1.1176 -5.4864,1.1176 z m -5.9944,-15.951199 h 11.5824 q -0.1524,-2.3368 -1.7272,-3.7084 -1.524,-1.4224 -3.81,-1.4224 -1.7272,0 -3.1496,0.8128 -1.4224,0.8128 -2.2352,2.3876 -0.4572,0.8636 -0.6604,1.9304 z m 30.471506,15.951199 q -3.505199,0 -6.248399,-1.7272 -2.7432,-1.7272 -4.3688,-4.775199 -1.5748,-3.048 -1.5748,-6.858 0,-3.9116 1.5748,-6.9088 1.6256,-3.048 4.4196,-4.7752 2.8448,-1.778 6.349999,-1.778 2.7432,0 4.7752,1.016 2.032,0.9652 3.302,2.794 v -14.1732 h 7.112 v 36.575999 h -6.2992 l -0.8128,-3.4544 q -0.762,1.0668 -1.8796,2.032 -1.1176,0.9144 -2.6924,1.4732 -1.5748,0.5588 -3.6576,0.5588 z m 1.7272,-6.197599 q 1.9812,0 3.5052,-0.9144 1.524,-0.9144 2.3368,-2.54 0.8636,-1.6256 0.8636,-3.7592 0,-2.1336 -0.8636,-3.7592 -0.8128,-1.6256 -2.3368,-2.54 -1.524,-0.9144 -3.5052,-0.9144 -1.9304,0 -3.4544,0.9144 -1.523999,0.9144 -2.387599,2.54 -0.8128,1.6256 -0.8128,3.7084 0,2.1336 0.8128,3.81 0.8636,1.6256 2.387599,2.54 1.524,0.9144 3.4544,0.9144 z m 27.321909,6.197599 q -3.8608,0 -6.858,-1.6256 -2.9464,-1.6764 -4.6228,-4.622799 -1.6764,-2.9972 -1.6764,-6.9088 0,-3.9624 1.6256,-7.0104 1.6764,-3.0988 4.6228,-4.8768 2.9972,-1.778 6.9596,-1.778 3.810003,0 6.654803,1.6764 2.8956,1.6764 4.4704,4.5212 1.6256,2.8448 1.6256,6.5532 0,0.508 -0.0508,1.1176 0,0.6096 -0.1016,1.3208 H 91.907097 q 0.1016,1.524 0.7112,2.6924 0.762,1.524 2.1336,2.3368 1.3716,0.8128 3.2004,0.8128 1.828799,0 2.997203,-0.762 1.2192,-0.762 1.8288,-1.9812 h 7.2644 q -0.7112,2.3876 -2.4384,4.317999 -1.6764,1.9304 -4.1148,3.0988 -2.4384,1.1176 -5.486403,1.1176 z m -5.9944,-15.951199 H 103.5911 q -0.1524,-2.3368 -1.7272,-3.7084 -1.524,-1.4224 -3.810003,-1.4224 -1.7272,0 -3.1496,0.8128 -1.4224,0.8128 -2.2352,2.3876 -0.4572,0.8636 -0.6604,1.9304 z M 111.101,85.939323 V 60.336124 h 6.2992 l 0.6604,4.7244 q 0.9652,-1.6764 2.3368,-2.8448 1.3716,-1.1684 3.2004,-1.8288 1.8288,-0.6604 3.9624,-0.6604 v 7.5184 h -2.3876 q -1.524,0 -2.8448,0.3556 -1.27,0.3556 -2.2352,1.1684 -0.9144,0.762 -1.4224,2.1336 -0.4572,1.3208 -0.4572,3.3528 v 11.683999 z m 27.67754,0.6096 q -3.8608,0 -6.858,-1.6256 -2.9464,-1.6764 -4.6228,-4.622799 -1.6764,-2.9972 -1.6764,-6.9088 0,-3.9624 1.6256,-7.0104 1.6764,-3.0988 4.6228,-4.8768 2.9972,-1.778 6.9596,-1.778 3.81,0 6.6548,1.6764 2.8956,1.6764 4.4704,4.5212 1.6256,2.8448 1.6256,6.5532 0,0.508 -0.0508,1.1176 0,0.6096 -0.1016,1.3208 h -18.7452 q 0.1016,1.524 0.7112,2.6924 0.762,1.524 2.1336,2.3368 1.3716,0.8128 3.2004,0.8128 1.8288,0 2.9972,-0.762 1.2192,-0.762 1.8288,-1.9812 h 7.2644 q -0.7112,2.3876 -2.4384,4.317999 -1.6764,1.9304 -4.1148,3.0988 -2.4384,1.1176 -5.4864,1.1176 z m -5.9944,-15.951199 h 11.5824 q -0.1524,-2.3368 -1.7272,-3.7084 -1.524,-1.4224 -3.81,-1.4224 -1.7272,0 -3.1496,0.8128 -1.4224,0.8128 -2.2352,2.3876 -0.4572,0.8636 -0.6604,1.9304 z m 29.60791,15.951199 q -3.556,0 -6.1468,-1.1176 -2.5908,-1.1684 -4.064,-3.0988 -1.4732,-1.981199 -1.7272,-4.470399 h 7.112 q 0.2032,0.9144 0.762,1.6764 0.6096,0.7112 1.5748,1.1684 1.016,0.457199 2.3876,0.457199 1.3208,0 2.1336,-0.355599 0.8636,-0.4064 1.27,-1.016 0.4572,-0.6096 0.4572,-1.3208 0,-1.016 -0.6096,-1.5748 -0.6096,-0.5588 -1.778,-0.9144 -1.1684,-0.3556 -2.794,-0.6604 -1.8288,-0.4064 -3.6068,-0.9144 -1.7272,-0.508 -3.1496,-1.3208 -1.3716,-0.8636 -2.1844,-2.1336 -0.8128,-1.27 -0.8128,-3.1496 0,-2.286 1.2192,-4.1148 1.27,-1.8288 3.6068,-2.8956 2.3876,-1.0668 5.6896,-1.0668 4.6736,0 7.366,2.1336 2.7432,2.0828 3.2512,5.6896 h -6.7056 q -0.254,-1.1176 -1.27,-1.7272 -1.016,-0.6096 -2.6924,-0.6096 -1.7272,0 -2.6924,0.6096 -0.9144,0.6096 -0.9144,1.6256 0,0.6604 0.6096,1.2192 0.6096,0.508 1.7272,0.9144 1.1684,0.3556 2.8448,0.7112 2.9972,0.6096 5.2324,1.4224 2.2352,0.762 3.5052,2.2352 1.27,1.4224 1.27,4.1656 0.0508,2.4384 -1.3208,4.368799 -1.3208,1.9304 -3.7592,2.9972 -2.4384,1.0668 -5.7912,1.0668 z"
       id="text1"
       style="font-size:50.8px;font-family:'DM Sans 9pt ExtraBold';-inkscape-font-specification:'DM Sans 9pt ExtraBold, Normal';letter-spacing:-5.29167px;fill:#eee0c9;stroke-width:0.264583"
       aria-label="ederes" />
  </g>
</svg>
