<svg width="130" height="45" viewBox="0 0 130 45" fill="none" xmlns="http://www.w3.org/2000/svg">
<path d="M4.608 15.96C4.608 16.472 4.672 16.848 4.8 17.088C4.944 17.312 5.208 17.472 5.592 17.568C5.992 17.664 6.616 17.712 7.464 17.712C7.512 17.712 7.536 17.76 7.536 17.856C7.536 17.952 7.512 18 7.464 18C6.808 18 6.296 17.992 5.928 17.976L3.84 17.952L2.232 17.976C1.928 17.992 1.52 18 1.008 18C0.976 18 0.96 17.952 0.96 17.856C0.96 17.76 0.976 17.712 1.008 17.712C1.616 17.712 2.056 17.672 2.328 17.592C2.616 17.512 2.808 17.36 2.904 17.136C3 16.896 3.048 16.536 3.048 16.056V4.944C3.048 4.464 3 4.112 2.904 3.888C2.808 3.664 2.616 3.512 2.328 3.432C2.056 3.336 1.616 3.288 1.008 3.288C0.976 3.288 0.96 3.24 0.96 3.144C0.96 3.048 0.976 3 1.008 3L2.208 3.024C2.88 3.056 3.416 3.072 3.816 3.072C4.216 3.072 4.664 3.048 5.16 3C5.352 3 5.656 2.992 6.072 2.976C6.488 2.944 6.848 2.928 7.152 2.928C8.624 2.928 9.8 3.256 10.68 3.912C11.576 4.568 12.024 5.568 12.024 6.912C12.024 7.968 11.76 8.856 11.232 9.576C10.72 10.296 10.056 10.832 9.24 11.184C8.44 11.536 7.608 11.712 6.744 11.712C6.264 11.712 5.872 11.672 5.568 11.592C5.52 11.592 5.496 11.552 5.496 11.472C5.496 11.424 5.504 11.376 5.52 11.328C5.552 11.28 5.584 11.264 5.616 11.28C5.872 11.344 6.16 11.376 6.48 11.376C7.536 11.376 8.424 11.032 9.144 10.344C9.88 9.656 10.248 8.664 10.248 7.368C10.248 6.104 9.904 5.112 9.216 4.392C8.528 3.656 7.648 3.288 6.576 3.288C6 3.288 5.584 3.32 5.328 3.384C5.072 3.448 4.888 3.6 4.776 3.84C4.664 4.064 4.608 4.448 4.608 4.992V15.96ZM21.0848 16.656C21.1328 16.656 21.1728 16.688 21.2048 16.752C21.2528 16.8 21.2608 16.848 21.2288 16.896C20.1728 17.824 19.0048 18.288 17.7248 18.288C16.7968 18.288 16.0048 18.072 15.3488 17.64C14.6928 17.208 14.1888 16.64 13.8368 15.936C13.5008 15.232 13.3328 14.48 13.3328 13.68C13.3328 12.736 13.5568 11.872 14.0048 11.088C14.4528 10.288 15.0608 9.664 15.8288 9.216C16.6128 8.752 17.4688 8.52 18.3968 8.52C19.2928 8.52 19.9808 8.76 20.4608 9.24C20.9408 9.72 21.1808 10.392 21.1808 11.256C21.1808 11.48 21.1568 11.64 21.1088 11.736C21.0768 11.832 21.0128 11.88 20.9168 11.88L14.9648 11.904C14.9328 12.256 14.9168 12.544 14.9168 12.768C14.9168 14.16 15.2448 15.288 15.9008 16.152C16.5568 17.016 17.4768 17.448 18.6608 17.448C19.1408 17.448 19.5488 17.384 19.8848 17.256C20.2368 17.128 20.6288 16.928 21.0608 16.656H21.0848ZM17.6048 9C16.9168 9 16.3488 9.232 15.9008 9.696C15.4528 10.144 15.1568 10.776 15.0128 11.592L19.5728 11.496C19.5728 10.68 19.3968 10.064 19.0448 9.648C18.6928 9.216 18.2128 9 17.6048 9ZM40.0736 17.712C40.1376 17.712 40.1696 17.76 40.1696 17.856C40.1696 17.952 40.1376 18 40.0736 18C39.7056 18 39.4096 17.992 39.1856 17.976L37.8896 17.952L36.5936 17.976C36.3696 17.992 36.0736 18 35.7056 18C35.6576 18 35.6336 17.952 35.6336 17.856C35.6336 17.76 35.6576 17.712 35.7056 17.712C36.1376 17.712 36.4576 17.672 36.6656 17.592C36.8736 17.496 37.0176 17.336 37.0976 17.112C37.1776 16.872 37.2176 16.52 37.2176 16.056V12.24C37.2176 11.296 37.0496 10.6 36.7136 10.152C36.3776 9.688 35.8576 9.456 35.1536 9.456C34.6736 9.456 34.1856 9.592 33.6896 9.864C33.2096 10.12 32.7616 10.488 32.3456 10.968C32.3616 11.048 32.3696 11.176 32.3696 11.352V16.056C32.3696 16.536 32.4096 16.888 32.4896 17.112C32.5696 17.336 32.7136 17.496 32.9216 17.592C33.1296 17.672 33.4496 17.712 33.8816 17.712C33.9296 17.712 33.9536 17.76 33.9536 17.856C33.9536 17.952 33.9296 18 33.8816 18C33.5136 18 33.2176 17.992 32.9936 17.976L31.6976 17.952L30.3776 17.976C30.1696 17.992 29.8816 18 29.5136 18C29.4656 18 29.4416 17.952 29.4416 17.856C29.4416 17.76 29.4656 17.712 29.5136 17.712C29.9456 17.712 30.2656 17.672 30.4736 17.592C30.6816 17.496 30.8176 17.336 30.8816 17.112C30.9616 16.888 31.0016 16.536 31.0016 16.056V12.24C31.0016 11.296 30.8336 10.6 30.4976 10.152C30.1616 9.688 29.6496 9.456 28.9616 9.456C28.4816 9.456 28.0016 9.584 27.5216 9.84C27.0416 10.096 26.6016 10.456 26.2016 10.92V16.056C26.2016 16.536 26.2336 16.888 26.2976 17.112C26.3776 17.336 26.5216 17.496 26.7296 17.592C26.9376 17.672 27.2576 17.712 27.6896 17.712C27.7376 17.712 27.7616 17.76 27.7616 17.856C27.7616 17.952 27.7376 18 27.6896 18C27.3216 18 27.0336 17.992 26.8256 17.976L25.5296 17.952L24.2096 17.976C24.0016 17.992 23.7136 18 23.3456 18C23.2976 18 23.2736 17.952 23.2736 17.856C23.2736 17.76 23.2976 17.712 23.3456 17.712C23.7776 17.712 24.0976 17.672 24.3056 17.592C24.5136 17.496 24.6496 17.336 24.7136 17.112C24.7936 16.888 24.8336 16.536 24.8336 16.056V11.304C24.8336 10.76 24.7696 10.368 24.6416 10.128C24.5136 9.888 24.2976 9.768 23.9936 9.768C23.7376 9.768 23.3056 9.888 22.6976 10.128H22.6496C22.5856 10.128 22.5376 10.096 22.5056 10.032C22.4896 9.952 22.5136 9.896 22.5776 9.864L25.3616 8.544L25.5056 8.52C25.6496 8.52 25.8016 8.704 25.9616 9.072C26.1216 9.44 26.2016 9.912 26.2016 10.488V10.512C26.7776 9.808 27.3536 9.296 27.9296 8.976C28.5056 8.656 29.1056 8.496 29.7296 8.496C30.4496 8.496 31.0336 8.672 31.4816 9.024C31.9296 9.376 32.2096 9.904 32.3216 10.608C32.9136 9.888 33.5056 9.36 34.0976 9.024C34.6896 8.672 35.3056 8.496 35.9456 8.496C36.7936 8.496 37.4416 8.744 37.8896 9.24C38.3536 9.72 38.5856 10.44 38.5856 11.4V16.056C38.5856 16.536 38.6176 16.888 38.6816 17.112C38.7616 17.336 38.9056 17.496 39.1136 17.592C39.3216 17.672 39.6416 17.712 40.0736 17.712ZM48.0583 8.424C48.7463 8.424 49.3863 8.592 49.9783 8.928C50.5703 9.264 51.0423 9.768 51.3943 10.44C51.7463 11.096 51.9223 11.904 51.9223 12.864C51.9223 14.016 51.6663 15.008 51.1543 15.84C50.6583 16.656 50.0023 17.272 49.1863 17.688C48.3863 18.104 47.5383 18.312 46.6423 18.312C45.4103 18.312 44.3223 17.96 43.3783 17.256L41.5543 18.12H41.5063C41.4423 18.12 41.4023 18.088 41.3863 18.024C41.3703 17.96 41.3863 17.912 41.4343 17.88C41.9463 17.528 42.3063 17.2 42.5143 16.896C42.7223 16.576 42.8263 16.12 42.8263 15.528V3.672C42.8263 3.096 42.7623 2.68 42.6343 2.424C42.5223 2.168 42.3223 2.04 42.0343 2.04C41.8103 2.04 41.4503 2.144 40.9543 2.352H40.9063C40.8583 2.352 40.8183 2.312 40.7863 2.232C40.7703 2.152 40.7863 2.104 40.8343 2.088L43.8343 0.623999L43.9543 0.599999C43.9863 0.599999 44.0263 0.623999 44.0743 0.671999C44.1383 0.703999 44.1703 0.743999 44.1703 0.792V10.512C44.7783 9.872 45.3863 9.368 45.9943 9C46.6023 8.616 47.2903 8.424 48.0583 8.424ZM47.3863 17.856C48.3143 17.856 49.0343 17.496 49.5463 16.776C50.0743 16.056 50.3383 15.024 50.3383 13.68C50.3383 12.24 50.0583 11.136 49.4983 10.368C48.9383 9.6 48.1943 9.216 47.2663 9.216C46.7223 9.216 46.2023 9.368 45.7063 9.672C45.2103 9.96 44.6983 10.368 44.1703 10.896V14.832C44.1703 15.536 44.3383 16.112 44.6743 16.56C45.0263 17.008 45.4503 17.336 45.9463 17.544C46.4423 17.752 46.9223 17.856 47.3863 17.856ZM59.4047 8.52C59.7567 8.52 60.0927 8.616 60.4127 8.808C60.7327 9 60.8927 9.232 60.8927 9.504C60.8927 9.712 60.8207 9.888 60.6767 10.032C60.5487 10.176 60.3567 10.248 60.1007 10.248C59.9567 10.248 59.8287 10.224 59.7167 10.176C59.6207 10.112 59.5007 10.024 59.3567 9.912C59.2127 9.784 59.0767 9.688 58.9487 9.624C58.8207 9.56 58.6687 9.528 58.4927 9.528C58.2847 9.528 58.0607 9.616 57.8207 9.792C57.5967 9.968 57.2367 10.344 56.7407 10.92V16.056C56.7407 16.536 56.7967 16.888 56.9087 17.112C57.0367 17.336 57.2607 17.496 57.5807 17.592C57.9007 17.672 58.3967 17.712 59.0687 17.712C59.1327 17.712 59.1647 17.76 59.1647 17.856C59.1647 17.952 59.1327 18 59.0687 18C58.5567 18 58.1487 17.992 57.8447 17.976L56.0687 17.952L54.7487 17.976C54.5407 17.992 54.2527 18 53.8847 18C53.8367 18 53.8127 17.952 53.8127 17.856C53.8127 17.76 53.8367 17.712 53.8847 17.712C54.3167 17.712 54.6367 17.672 54.8447 17.592C55.0527 17.496 55.1887 17.336 55.2527 17.112C55.3327 16.888 55.3727 16.536 55.3727 16.056V11.304C55.3727 10.76 55.3087 10.368 55.1807 10.128C55.0527 9.888 54.8367 9.768 54.5327 9.768C54.2767 9.768 53.8447 9.888 53.2367 10.128H53.1887C53.1247 10.128 53.0767 10.096 53.0447 10.032C53.0287 9.952 53.0527 9.896 53.1167 9.864L55.9007 8.544L56.0447 8.52C56.1887 8.52 56.3407 8.704 56.5007 9.072C56.6607 9.44 56.7407 9.912 56.7407 10.488V10.512C57.3967 9.744 57.9167 9.224 58.3007 8.952C58.6847 8.664 59.0527 8.52 59.4047 8.52ZM66.8096 18.312C65.8816 18.312 65.0576 18.088 64.3376 17.64C63.6336 17.176 63.0896 16.56 62.7056 15.792C62.3216 15.008 62.1296 14.16 62.1296 13.248C62.1296 12.208 62.3776 11.328 62.8736 10.608C63.3856 9.872 64.0336 9.328 64.8176 8.976C65.6176 8.608 66.4256 8.424 67.2416 8.424C68.1856 8.424 69.0096 8.656 69.7136 9.12C70.4176 9.584 70.9536 10.2 71.3216 10.968C71.7056 11.72 71.8976 12.52 71.8976 13.368C71.8976 14.36 71.6656 15.232 71.2016 15.984C70.7376 16.72 70.1136 17.296 69.3296 17.712C68.5616 18.112 67.7216 18.312 66.8096 18.312ZM67.5056 17.856C68.3856 17.856 69.0656 17.544 69.5456 16.92C70.0256 16.296 70.2656 15.336 70.2656 14.04C70.2656 13.048 70.0976 12.16 69.7616 11.376C69.4416 10.592 68.9936 9.984 68.4176 9.552C67.8416 9.104 67.1856 8.88 66.4496 8.88C65.5856 8.88 64.9136 9.192 64.4336 9.816C63.9696 10.44 63.7376 11.336 63.7376 12.504C63.7376 13.48 63.8976 14.376 64.2176 15.192C64.5376 16.008 64.9856 16.656 65.5616 17.136C66.1376 17.616 66.7856 17.856 67.5056 17.856ZM84.342 17.712C84.39 17.712 84.414 17.76 84.414 17.856C84.414 17.952 84.39 18 84.342 18C83.974 18 83.678 17.992 83.454 17.976L82.158 17.952L80.43 17.976C80.174 17.992 79.83 18 79.398 18C79.366 18 79.35 17.952 79.35 17.856C79.35 17.76 79.366 17.712 79.398 17.712C80.198 17.712 80.598 17.56 80.598 17.256C80.598 17.112 80.526 16.936 80.382 16.728L77.43 12.72L76.23 13.656V16.056C76.23 16.52 76.27 16.872 76.35 17.112C76.43 17.336 76.574 17.496 76.782 17.592C76.99 17.672 77.31 17.712 77.742 17.712C77.79 17.712 77.814 17.76 77.814 17.856C77.814 17.952 77.79 18 77.742 18C77.374 18 77.078 17.992 76.854 17.976L75.558 17.952L74.262 17.976C74.038 17.992 73.742 18 73.374 18C73.326 18 73.302 17.952 73.302 17.856C73.302 17.76 73.326 17.712 73.374 17.712C73.806 17.712 74.126 17.672 74.334 17.592C74.542 17.496 74.686 17.336 74.766 17.112C74.846 16.872 74.886 16.52 74.886 16.056V3.648C74.886 3.072 74.83 2.656 74.718 2.4C74.606 2.144 74.406 2.016 74.118 2.016C73.878 2.016 73.51 2.128 73.014 2.352H72.966C72.918 2.352 72.878 2.312 72.846 2.232C72.814 2.152 72.83 2.104 72.894 2.088L75.894 0.623999L76.014 0.599999C76.062 0.599999 76.11 0.623999 76.158 0.671999C76.206 0.703999 76.23 0.743999 76.23 0.792V13.272L79.446 10.68C79.958 10.28 80.214 9.928 80.214 9.624C80.214 9.224 79.758 9.024 78.846 9.024C78.798 9.024 78.774 8.976 78.774 8.88C78.774 8.784 78.798 8.736 78.846 8.736C79.278 8.736 79.606 8.744 79.83 8.76L81.582 8.784L83.19 8.76C83.398 8.744 83.686 8.736 84.054 8.736C84.102 8.736 84.126 8.784 84.126 8.88C84.126 8.976 84.102 9.024 84.054 9.024C83.462 9.024 82.806 9.168 82.086 9.456C81.366 9.744 80.646 10.176 79.926 10.752L78.534 11.856L81.582 16.056C82.382 17.16 83.302 17.712 84.342 17.712ZM92.7332 16.656C92.7812 16.656 92.8212 16.688 92.8532 16.752C92.9012 16.8 92.9092 16.848 92.8772 16.896C91.8212 17.824 90.6532 18.288 89.3732 18.288C88.4452 18.288 87.6532 18.072 86.9972 17.64C86.3412 17.208 85.8372 16.64 85.4852 15.936C85.1492 15.232 84.9812 14.48 84.9812 13.68C84.9812 12.736 85.2052 11.872 85.6532 11.088C86.1012 10.288 86.7092 9.664 87.4772 9.216C88.2612 8.752 89.1172 8.52 90.0452 8.52C90.9412 8.52 91.6292 8.76 92.1092 9.24C92.5892 9.72 92.8292 10.392 92.8292 11.256C92.8292 11.48 92.8052 11.64 92.7572 11.736C92.7252 11.832 92.6612 11.88 92.5652 11.88L86.6132 11.904C86.5812 12.256 86.5652 12.544 86.5652 12.768C86.5652 14.16 86.8932 15.288 87.5492 16.152C88.2052 17.016 89.1252 17.448 90.3092 17.448C90.7892 17.448 91.1972 17.384 91.5332 17.256C91.8852 17.128 92.2772 16.928 92.7092 16.656H92.7332ZM89.2532 9C88.5652 9 87.9972 9.232 87.5492 9.696C87.1012 10.144 86.8052 10.776 86.6612 11.592L91.2212 11.496C91.2212 10.68 91.0452 10.064 90.6932 9.648C90.3412 9.216 89.8612 9 89.2532 9ZM95.5701 2.808C96.0501 2.808 96.4261 2.992 96.6981 3.36C96.9701 3.712 97.1061 4.224 97.1061 4.896C97.1061 5.536 96.9621 6.136 96.6741 6.696C96.3861 7.24 95.9621 7.784 95.4021 8.328C95.3861 8.344 95.3621 8.352 95.3301 8.352C95.2821 8.352 95.2421 8.328 95.2101 8.28C95.1781 8.232 95.1781 8.192 95.2101 8.16C95.9941 7.36 96.3861 6.416 96.3861 5.328C96.3861 4.88 96.3061 4.552 96.1461 4.344C96.0021 4.584 95.7541 4.704 95.4021 4.704C95.1141 4.704 94.8821 4.616 94.7061 4.44C94.5461 4.264 94.4661 4.04 94.4661 3.768C94.4661 3.128 94.8341 2.808 95.5701 2.808ZM99.5256 10.2C99.5256 10.76 99.7096 11.208 100.078 11.544C100.446 11.864 100.982 12.208 101.686 12.576C102.246 12.864 102.678 13.112 102.982 13.32C103.302 13.528 103.574 13.8 103.798 14.136C104.022 14.472 104.134 14.88 104.134 15.36C104.134 16.176 103.83 16.864 103.222 17.424C102.614 17.984 101.79 18.264 100.75 18.264C99.9016 18.264 99.1336 18.024 98.4456 17.544C98.3496 17.48 98.3016 17.384 98.3016 17.256L98.2536 15.384C98.2536 15.336 98.2936 15.312 98.3736 15.312C98.4696 15.296 98.5256 15.312 98.5416 15.36C98.8456 16.16 99.2376 16.768 99.7176 17.184C100.214 17.6 100.782 17.808 101.422 17.808C101.95 17.808 102.35 17.68 102.622 17.424C102.894 17.168 103.014 16.792 102.982 16.296C102.966 15.688 102.774 15.224 102.406 14.904C102.054 14.568 101.518 14.224 100.798 13.872C100.27 13.616 99.8456 13.384 99.5256 13.176C99.2216 12.968 98.9576 12.696 98.7336 12.36C98.5256 12.024 98.4216 11.608 98.4216 11.112C98.4216 10.248 98.7416 9.592 99.3816 9.144C100.038 8.68 100.806 8.448 101.686 8.448C102.326 8.448 102.91 8.568 103.438 8.808C103.534 8.84 103.59 8.88 103.606 8.928C103.638 8.96 103.654 9.008 103.654 9.072C103.654 9.392 103.646 9.64 103.63 9.816L103.606 10.824C103.606 10.856 103.558 10.872 103.462 10.872C103.366 10.872 103.318 10.856 103.318 10.824C103.318 10.488 103.19 10.176 102.934 9.888C102.678 9.584 102.358 9.344 101.974 9.168C101.59 8.992 101.206 8.904 100.822 8.904C100.422 8.904 100.102 9.016 99.8616 9.24C99.6376 9.448 99.5256 9.768 99.5256 10.2ZM9.864 22.736C10.872 22.736 11.72 22.808 12.408 22.952C13.096 23.096 13.784 23.344 14.472 23.696C14.584 23.76 14.648 23.816 14.664 23.864C14.68 23.912 14.704 24.032 14.736 24.224L15.024 27.08C15.024 27.128 14.976 27.16 14.88 27.176C14.8 27.176 14.752 27.152 14.736 27.104C14 24.432 12.352 23.096 9.792 23.096C8.448 23.096 7.264 23.392 6.24 23.984C5.216 24.576 4.424 25.424 3.864 26.528C3.304 27.616 3.024 28.888 3.024 30.344C3.024 31.736 3.328 33.016 3.936 34.184C4.56 35.336 5.392 36.248 6.432 36.92C7.488 37.592 8.632 37.928 9.864 37.928C11.176 37.928 12.24 37.608 13.056 36.968C13.872 36.328 14.496 35.352 14.928 34.04C14.928 34.008 14.968 33.992 15.048 33.992C15.16 33.992 15.216 34.016 15.216 34.064L14.976 36.704C14.96 36.896 14.936 37.016 14.904 37.064C14.872 37.112 14.808 37.168 14.712 37.232C13.88 37.632 13.096 37.912 12.36 38.072C11.64 38.232 10.808 38.312 9.864 38.312C8.184 38.312 6.68 37.984 5.352 37.328C4.04 36.656 3.016 35.72 2.28 34.52C1.544 33.32 1.176 31.944 1.176 30.392C1.176 28.888 1.552 27.56 2.304 26.408C3.056 25.24 4.088 24.336 5.4 23.696C6.728 23.056 8.216 22.736 9.864 22.736ZM21.9971 38.312C21.0691 38.312 20.2451 38.088 19.5251 37.64C18.8211 37.176 18.2771 36.56 17.8931 35.792C17.5091 35.008 17.3171 34.16 17.3171 33.248C17.3171 32.208 17.5651 31.328 18.0611 30.608C18.5731 29.872 19.2211 29.328 20.0051 28.976C20.8051 28.608 21.6131 28.424 22.4291 28.424C23.3731 28.424 24.1971 28.656 24.9011 29.12C25.6051 29.584 26.1411 30.2 26.5091 30.968C26.8931 31.72 27.0851 32.52 27.0851 33.368C27.0851 34.36 26.8531 35.232 26.3891 35.984C25.9251 36.72 25.3011 37.296 24.5171 37.712C23.7491 38.112 22.9091 38.312 21.9971 38.312ZM22.6931 37.856C23.5731 37.856 24.2531 37.544 24.7331 36.92C25.2131 36.296 25.4531 35.336 25.4531 34.04C25.4531 33.048 25.2851 32.16 24.9491 31.376C24.6291 30.592 24.1811 29.984 23.6051 29.552C23.0291 29.104 22.3731 28.88 21.6371 28.88C20.7731 28.88 20.1011 29.192 19.6211 29.816C19.1571 30.44 18.9251 31.336 18.9251 32.504C18.9251 33.48 19.0851 34.376 19.4051 35.192C19.7251 36.008 20.1731 36.656 20.7491 37.136C21.3251 37.616 21.9731 37.856 22.6931 37.856ZM45.7455 37.712C45.8095 37.712 45.8415 37.76 45.8415 37.856C45.8415 37.952 45.8095 38 45.7455 38C45.3775 38 45.0815 37.992 44.8575 37.976L43.5615 37.952L42.2655 37.976C42.0415 37.992 41.7455 38 41.3775 38C41.3295 38 41.3055 37.952 41.3055 37.856C41.3055 37.76 41.3295 37.712 41.3775 37.712C41.8095 37.712 42.1295 37.672 42.3375 37.592C42.5455 37.496 42.6895 37.336 42.7695 37.112C42.8495 36.872 42.8895 36.52 42.8895 36.056V32.24C42.8895 31.296 42.7215 30.6 42.3855 30.152C42.0495 29.688 41.5295 29.456 40.8255 29.456C40.3455 29.456 39.8575 29.592 39.3615 29.864C38.8815 30.12 38.4335 30.488 38.0175 30.968C38.0335 31.048 38.0415 31.176 38.0415 31.352V36.056C38.0415 36.536 38.0815 36.888 38.1615 37.112C38.2415 37.336 38.3855 37.496 38.5935 37.592C38.8015 37.672 39.1215 37.712 39.5535 37.712C39.6015 37.712 39.6255 37.76 39.6255 37.856C39.6255 37.952 39.6015 38 39.5535 38C39.1855 38 38.8895 37.992 38.6655 37.976L37.3695 37.952L36.0495 37.976C35.8415 37.992 35.5535 38 35.1855 38C35.1375 38 35.1135 37.952 35.1135 37.856C35.1135 37.76 35.1375 37.712 35.1855 37.712C35.6175 37.712 35.9375 37.672 36.1455 37.592C36.3535 37.496 36.4895 37.336 36.5535 37.112C36.6335 36.888 36.6735 36.536 36.6735 36.056V32.24C36.6735 31.296 36.5055 30.6 36.1695 30.152C35.8335 29.688 35.3215 29.456 34.6335 29.456C34.1535 29.456 33.6735 29.584 33.1935 29.84C32.7135 30.096 32.2735 30.456 31.8735 30.92V36.056C31.8735 36.536 31.9055 36.888 31.9695 37.112C32.0495 37.336 32.1935 37.496 32.4015 37.592C32.6095 37.672 32.9295 37.712 33.3615 37.712C33.4095 37.712 33.4335 37.76 33.4335 37.856C33.4335 37.952 33.4095 38 33.3615 38C32.9935 38 32.7055 37.992 32.4975 37.976L31.2015 37.952L29.8815 37.976C29.6735 37.992 29.3855 38 29.0175 38C28.9695 38 28.9455 37.952 28.9455 37.856C28.9455 37.76 28.9695 37.712 29.0175 37.712C29.4495 37.712 29.7695 37.672 29.9775 37.592C30.1855 37.496 30.3215 37.336 30.3855 37.112C30.4655 36.888 30.5055 36.536 30.5055 36.056V31.304C30.5055 30.76 30.4415 30.368 30.3135 30.128C30.1855 29.888 29.9695 29.768 29.6655 29.768C29.4095 29.768 28.9775 29.888 28.3695 30.128H28.3215C28.2575 30.128 28.2095 30.096 28.1775 30.032C28.1615 29.952 28.1855 29.896 28.2495 29.864L31.0335 28.544L31.1775 28.52C31.3215 28.52 31.4735 28.704 31.6335 29.072C31.7935 29.44 31.8735 29.912 31.8735 30.488V30.512C32.4495 29.808 33.0255 29.296 33.6015 28.976C34.1775 28.656 34.7775 28.496 35.4015 28.496C36.1215 28.496 36.7055 28.672 37.1535 29.024C37.6015 29.376 37.8815 29.904 37.9935 30.608C38.5855 29.888 39.1775 29.36 39.7695 29.024C40.3615 28.672 40.9775 28.496 41.6175 28.496C42.4655 28.496 43.1135 28.744 43.5615 29.24C44.0255 29.72 44.2575 30.44 44.2575 31.4V36.056C44.2575 36.536 44.2895 36.888 44.3535 37.112C44.4335 37.336 44.5775 37.496 44.7855 37.592C44.9935 37.672 45.3135 37.712 45.7455 37.712ZM53.8982 28.424C54.5542 28.424 55.1622 28.6 55.7222 28.952C56.2822 29.304 56.7302 29.816 57.0662 30.488C57.4022 31.16 57.5702 31.944 57.5702 32.84C57.5702 34.04 57.2982 35.056 56.7542 35.888C56.2102 36.704 55.5382 37.312 54.7382 37.712C53.9542 38.112 53.1782 38.312 52.4102 38.312C51.9142 38.312 51.4662 38.264 51.0662 38.168C50.6822 38.072 50.2822 37.912 49.8662 37.688V42.656C49.8662 43.136 49.9222 43.488 50.0342 43.712C50.1622 43.936 50.3942 44.088 50.7302 44.168C51.0662 44.264 51.5782 44.312 52.2662 44.312C52.2982 44.312 52.3142 44.36 52.3142 44.456C52.3142 44.552 52.2982 44.6 52.2662 44.6C51.7222 44.6 51.2902 44.592 50.9702 44.576L49.2182 44.552L47.8982 44.576C47.6742 44.592 47.3782 44.6 47.0102 44.6C46.9622 44.6 46.9382 44.552 46.9382 44.456C46.9382 44.36 46.9622 44.312 47.0102 44.312C47.4422 44.312 47.7622 44.264 47.9702 44.168C48.1782 44.088 48.3222 43.936 48.4022 43.712C48.4822 43.488 48.5222 43.136 48.5222 42.656V31.376C48.5222 30.8 48.4582 30.392 48.3302 30.152C48.2022 29.896 47.9782 29.768 47.6582 29.768C47.3062 29.768 46.8822 29.88 46.3862 30.104L46.3382 30.128C46.2742 30.128 46.2342 30.088 46.2182 30.008C46.1862 29.928 46.1942 29.872 46.2422 29.84L48.9062 28.568C48.9382 28.552 48.9942 28.544 49.0742 28.544C49.2982 28.544 49.4822 28.712 49.6262 29.048C49.7702 29.384 49.8502 29.864 49.8662 30.488C51.2262 29.112 52.5702 28.424 53.8982 28.424ZM53.1302 37.808C53.9782 37.808 54.6742 37.44 55.2182 36.704C55.7622 35.952 56.0342 34.912 56.0342 33.584C56.0342 32.24 55.7382 31.2 55.1462 30.464C54.5542 29.712 53.8022 29.336 52.8902 29.336C52.3302 29.336 51.8102 29.472 51.3302 29.744C50.8502 30.016 50.3622 30.4 49.8662 30.896V36.296C50.3142 36.792 50.7862 37.168 51.2822 37.424C51.7942 37.68 52.4102 37.808 53.1302 37.808ZM67.116 36.656C67.164 36.656 67.204 36.688 67.236 36.752C67.284 36.8 67.292 36.848 67.26 36.896C66.204 37.824 65.036 38.288 63.756 38.288C62.828 38.288 62.036 38.072 61.38 37.64C60.724 37.208 60.22 36.64 59.868 35.936C59.532 35.232 59.364 34.48 59.364 33.68C59.364 32.736 59.588 31.872 60.036 31.088C60.484 30.288 61.092 29.664 61.86 29.216C62.644 28.752 63.5 28.52 64.428 28.52C65.324 28.52 66.012 28.76 66.492 29.24C66.972 29.72 67.212 30.392 67.212 31.256C67.212 31.48 67.188 31.64 67.14 31.736C67.108 31.832 67.044 31.88 66.948 31.88L60.996 31.904C60.964 32.256 60.948 32.544 60.948 32.768C60.948 34.16 61.276 35.288 61.932 36.152C62.588 37.016 63.508 37.448 64.692 37.448C65.172 37.448 65.58 37.384 65.916 37.256C66.268 37.128 66.66 36.928 67.092 36.656H67.116ZM63.636 29C62.948 29 62.38 29.232 61.932 29.696C61.484 30.144 61.188 30.776 61.044 31.592L65.604 31.496C65.604 30.68 65.428 30.064 65.076 29.648C64.724 29.216 64.244 29 63.636 29ZM80.1769 37.712C80.2249 37.712 80.2489 37.76 80.2489 37.856C80.2489 37.952 80.2249 38 80.1769 38C79.8089 38 79.5209 37.992 79.3129 37.976L78.0169 37.952L76.6969 37.976C76.4889 37.992 76.2009 38 75.8329 38C75.7849 38 75.7609 37.952 75.7609 37.856C75.7609 37.76 75.7849 37.712 75.8329 37.712C76.2649 37.712 76.5849 37.672 76.7929 37.592C77.0009 37.496 77.1369 37.336 77.2009 37.112C77.2809 36.888 77.3209 36.536 77.3209 36.056V32.168C77.3209 31.224 77.1369 30.528 76.7689 30.08C76.4169 29.632 75.8649 29.408 75.1129 29.408C74.6169 29.408 74.1129 29.544 73.6009 29.816C73.1049 30.072 72.6489 30.432 72.2329 30.896V36.056C72.2329 36.536 72.2649 36.888 72.3289 37.112C72.4089 37.336 72.5529 37.496 72.7609 37.592C72.9689 37.672 73.2889 37.712 73.7209 37.712C73.7689 37.712 73.7929 37.76 73.7929 37.856C73.7929 37.952 73.7689 38 73.7209 38C73.3529 38 73.0649 37.992 72.8569 37.976L71.5609 37.952L70.2409 37.976C70.0329 37.992 69.7449 38 69.3769 38C69.3289 38 69.3049 37.952 69.3049 37.856C69.3049 37.76 69.3289 37.712 69.3769 37.712C69.8089 37.712 70.1289 37.672 70.3369 37.592C70.5449 37.496 70.6809 37.336 70.7449 37.112C70.8249 36.888 70.8649 36.536 70.8649 36.056V31.304C70.8649 30.76 70.8009 30.368 70.6729 30.128C70.5449 29.888 70.3289 29.768 70.0249 29.768C69.7689 29.768 69.3369 29.888 68.7289 30.128H68.6809C68.6169 30.128 68.5689 30.096 68.5369 30.032C68.5209 29.952 68.5449 29.896 68.6089 29.864L71.3929 28.544L71.5369 28.52C71.6809 28.52 71.8329 28.704 71.9929 29.072C72.1529 29.44 72.2329 29.912 72.2329 30.488C72.8409 29.784 73.4409 29.264 74.0329 28.928C74.6409 28.592 75.2649 28.424 75.9049 28.424C76.8009 28.424 77.4889 28.672 77.9689 29.168C78.4489 29.664 78.6889 30.392 78.6889 31.352V36.056C78.6889 36.536 78.7209 36.888 78.7849 37.112C78.8649 37.336 79.0089 37.496 79.2169 37.592C79.4249 37.672 79.7449 37.712 80.1769 37.712ZM92.8393 36.632C92.9033 36.632 92.9433 36.672 92.9593 36.752C92.9913 36.832 92.9833 36.888 92.9353 36.92L90.2953 38.168C90.1993 38.2 90.1353 38.216 90.1033 38.216C89.8953 38.216 89.7193 38.04 89.5753 37.688C89.4313 37.336 89.3513 36.848 89.3353 36.224C88.7433 36.848 88.1193 37.352 87.4633 37.736C86.8233 38.12 86.1033 38.312 85.3033 38.312C84.6313 38.312 84.0073 38.12 83.4313 37.736C82.8713 37.352 82.4153 36.816 82.0633 36.128C81.7273 35.424 81.5593 34.624 81.5593 33.728C81.5593 32.592 81.8393 31.624 82.3993 30.824C82.9593 30.024 83.6633 29.424 84.5113 29.024C85.3593 28.624 86.1993 28.424 87.0313 28.424C87.8793 28.424 88.6473 28.632 89.3353 29.048V23.672C89.3353 23.096 89.2713 22.68 89.1433 22.424C89.0313 22.168 88.8313 22.04 88.5433 22.04C88.3353 22.04 87.9673 22.152 87.4393 22.376H87.3913C87.3273 22.376 87.2793 22.344 87.2473 22.28C87.2313 22.2 87.2473 22.144 87.2953 22.112L90.3433 20.624C90.3753 20.608 90.4153 20.6 90.4633 20.6C90.4953 20.6 90.5353 20.624 90.5833 20.672C90.6473 20.704 90.6793 20.744 90.6793 20.792V35.36C90.6793 35.936 90.7433 36.352 90.8713 36.608C91.0153 36.864 91.2393 36.992 91.5433 36.992C92.0073 36.992 92.4233 36.88 92.7913 36.656L92.8393 36.632ZM86.2393 37.448C86.8153 37.448 87.3513 37.312 87.8473 37.04C88.3433 36.752 88.8393 36.352 89.3353 35.84V30.56C88.9513 30.032 88.5273 29.624 88.0633 29.336C87.5993 29.048 87.0393 28.904 86.3833 28.904C85.3753 28.904 84.5753 29.264 83.9833 29.984C83.4073 30.688 83.1193 31.696 83.1193 33.008C83.1193 33.888 83.2553 34.664 83.5273 35.336C83.7993 36.008 84.1673 36.528 84.6313 36.896C85.1113 37.264 85.6473 37.448 86.2393 37.448ZM96.2646 25.712C95.9286 25.712 95.6646 25.624 95.4726 25.448C95.2966 25.272 95.2086 25.024 95.2086 24.704C95.2086 24.384 95.2966 24.136 95.4726 23.96C95.6646 23.784 95.9286 23.696 96.2646 23.696C96.5846 23.696 96.8326 23.784 97.0086 23.96C97.1846 24.136 97.2726 24.384 97.2726 24.704C97.2726 25.024 97.1846 25.272 97.0086 25.448C96.8326 25.624 96.5846 25.712 96.2646 25.712ZM94.2486 38C94.2166 38 94.2006 37.952 94.2006 37.856C94.2006 37.76 94.2166 37.712 94.2486 37.712C94.6806 37.712 95.0006 37.672 95.2086 37.592C95.4326 37.496 95.5846 37.336 95.6646 37.112C95.7446 36.872 95.7846 36.52 95.7846 36.056V31.568C95.7846 30.992 95.7206 30.576 95.5926 30.32C95.4806 30.064 95.2806 29.936 94.9926 29.936C94.7046 29.936 94.3446 30.048 93.9126 30.272H93.8886C93.8246 30.272 93.7766 30.232 93.7446 30.152C93.7126 30.072 93.7206 30.016 93.7686 29.984L96.8886 28.544L96.9846 28.52C97.0166 28.52 97.0566 28.544 97.1046 28.592C97.1526 28.624 97.1766 28.664 97.1766 28.712C97.1766 28.824 97.1686 29.144 97.1526 29.672C97.1366 30.2 97.1286 30.824 97.1286 31.544V36.056C97.1286 36.536 97.1686 36.888 97.2486 37.112C97.3286 37.336 97.4726 37.496 97.6806 37.592C97.8886 37.672 98.2086 37.712 98.6406 37.712C98.6886 37.712 98.7126 37.76 98.7126 37.856C98.7126 37.952 98.6886 38 98.6406 38C98.2726 38 97.9766 37.992 97.7526 37.976L96.4566 37.952L95.1606 37.976C94.9366 37.992 94.6326 38 94.2486 38ZM111.227 36.632C111.291 36.632 111.331 36.672 111.347 36.752C111.379 36.816 111.363 36.864 111.299 36.896L108.491 38.216L108.395 38.24C108.235 38.24 108.083 38.056 107.939 37.688C107.795 37.32 107.723 36.84 107.723 36.248V36.152C107.099 36.856 106.475 37.376 105.851 37.712C105.227 38.032 104.579 38.192 103.907 38.192C103.107 38.192 102.483 37.944 102.035 37.448C101.587 36.936 101.363 36.2 101.363 35.24V31.568C101.363 30.944 101.307 30.496 101.195 30.224C101.083 29.936 100.899 29.792 100.643 29.792C100.419 29.792 100.147 29.872 99.8271 30.032H99.8031C99.7391 30.032 99.6911 29.992 99.6591 29.912C99.6271 29.816 99.6431 29.76 99.7071 29.744L102.371 28.544L102.467 28.52C102.515 28.52 102.563 28.544 102.611 28.592C102.675 28.624 102.707 28.664 102.707 28.712V34.448C102.707 36.304 103.379 37.232 104.723 37.232C105.235 37.232 105.755 37.104 106.283 36.848C106.811 36.576 107.291 36.208 107.723 35.744V31.568C107.723 30.928 107.667 30.472 107.555 30.2C107.459 29.928 107.275 29.792 107.003 29.792C106.779 29.792 106.507 29.872 106.187 30.032H106.163C106.099 30.032 106.051 29.992 106.019 29.912C106.003 29.816 106.027 29.76 106.091 29.744L108.755 28.544L108.827 28.52C108.875 28.52 108.923 28.544 108.971 28.592C109.035 28.624 109.067 28.664 109.067 28.712V35.432C109.067 35.976 109.131 36.368 109.259 36.608C109.387 36.848 109.603 36.968 109.907 36.968C110.179 36.968 110.603 36.856 111.179 36.632H111.227ZM129.183 37.712C129.247 37.712 129.279 37.76 129.279 37.856C129.279 37.952 129.247 38 129.183 38C128.815 38 128.519 37.992 128.295 37.976L126.999 37.952L125.703 37.976C125.479 37.992 125.183 38 124.815 38C124.767 38 124.743 37.952 124.743 37.856C124.743 37.76 124.767 37.712 124.815 37.712C125.247 37.712 125.567 37.672 125.775 37.592C125.983 37.496 126.127 37.336 126.207 37.112C126.287 36.872 126.327 36.52 126.327 36.056V32.24C126.327 31.296 126.159 30.6 125.823 30.152C125.487 29.688 124.967 29.456 124.263 29.456C123.783 29.456 123.295 29.592 122.799 29.864C122.319 30.12 121.871 30.488 121.455 30.968C121.471 31.048 121.479 31.176 121.479 31.352V36.056C121.479 36.536 121.519 36.888 121.599 37.112C121.679 37.336 121.823 37.496 122.031 37.592C122.239 37.672 122.559 37.712 122.991 37.712C123.039 37.712 123.063 37.76 123.063 37.856C123.063 37.952 123.039 38 122.991 38C122.623 38 122.327 37.992 122.103 37.976L120.807 37.952L119.487 37.976C119.279 37.992 118.991 38 118.623 38C118.575 38 118.551 37.952 118.551 37.856C118.551 37.76 118.575 37.712 118.623 37.712C119.055 37.712 119.375 37.672 119.583 37.592C119.791 37.496 119.927 37.336 119.991 37.112C120.071 36.888 120.111 36.536 120.111 36.056V32.24C120.111 31.296 119.943 30.6 119.607 30.152C119.271 29.688 118.759 29.456 118.071 29.456C117.591 29.456 117.111 29.584 116.631 29.84C116.151 30.096 115.711 30.456 115.311 30.92V36.056C115.311 36.536 115.343 36.888 115.407 37.112C115.487 37.336 115.631 37.496 115.839 37.592C116.047 37.672 116.367 37.712 116.799 37.712C116.847 37.712 116.871 37.76 116.871 37.856C116.871 37.952 116.847 38 116.799 38C116.431 38 116.143 37.992 115.935 37.976L114.639 37.952L113.319 37.976C113.111 37.992 112.823 38 112.455 38C112.407 38 112.383 37.952 112.383 37.856C112.383 37.76 112.407 37.712 112.455 37.712C112.887 37.712 113.207 37.672 113.415 37.592C113.623 37.496 113.759 37.336 113.823 37.112C113.903 36.888 113.943 36.536 113.943 36.056V31.304C113.943 30.76 113.879 30.368 113.751 30.128C113.623 29.888 113.407 29.768 113.103 29.768C112.847 29.768 112.415 29.888 111.807 30.128H111.759C111.695 30.128 111.647 30.096 111.615 30.032C111.599 29.952 111.623 29.896 111.687 29.864L114.471 28.544L114.615 28.52C114.759 28.52 114.911 28.704 115.071 29.072C115.231 29.44 115.311 29.912 115.311 30.488V30.512C115.887 29.808 116.463 29.296 117.039 28.976C117.615 28.656 118.215 28.496 118.839 28.496C119.559 28.496 120.143 28.672 120.591 29.024C121.039 29.376 121.319 29.904 121.431 30.608C122.023 29.888 122.615 29.36 123.207 29.024C123.799 28.672 124.415 28.496 125.055 28.496C125.903 28.496 126.551 28.744 126.999 29.24C127.463 29.72 127.695 30.44 127.695 31.4V36.056C127.695 36.536 127.727 36.888 127.791 37.112C127.871 37.336 128.015 37.496 128.223 37.592C128.431 37.672 128.751 37.712 129.183 37.712Z" fill="black"/>
</svg>
