<svg width="421" height="95" viewBox="0 0 421 95" fill="none" xmlns="http://www.w3.org/2000/svg">
<circle cx="47.5" cy="47.5" r="47.5" fill="#0A1D56"/>
<path d="M83.7473 57.2473C82.6891 56.0719 81.114 55.4683 79.5308 55.6312L58.1496 57.8496L48.8753 42.7427L67.2048 12.8876C67.5435 12.3356 67.3712 11.6137 66.8193 11.2762C66.265 10.934 65.5454 11.1098 65.2079 11.6618L47.5006 40.5033L29.7921 11.6606C29.4535 11.1098 28.7339 10.9364 28.1796 11.2751C27.6288 11.6137 27.4554 12.3356 27.7941 12.8864L46.1248 42.7427L36.8505 57.8496L15.4693 55.6312C13.8907 55.4672 12.311 56.0707 11.2528 57.2473C10.1887 58.4297 9.76682 60.0575 10.1254 61.5985C10.1278 61.6114 10.1313 61.6243 10.1348 61.6384C10.9317 65.0052 13.9247 67.3525 17.4287 67.3525H33.1109C33.1227 67.3525 33.1344 67.3478 33.1461 67.3478C33.2328 67.3455 33.3207 67.3361 33.4051 67.3138C33.4473 67.3033 33.4848 67.2822 33.5246 67.267C33.5774 67.247 33.6301 67.2318 33.6793 67.2037C33.718 67.1826 33.7508 67.1521 33.786 67.1263C33.8305 67.0947 33.8785 67.0666 33.9195 67.0279C33.9629 66.9869 33.9969 66.9353 34.0332 66.8873C34.0578 66.8556 34.0871 66.8298 34.1082 66.7947L47.5006 44.9822L60.8918 66.7935C60.9141 66.8298 60.9446 66.8568 60.9692 66.8896C61.0055 66.9365 61.0383 66.9869 61.0805 67.0267C61.1227 67.0677 61.1731 67.097 61.22 67.131C61.254 67.1545 61.2844 67.1838 61.3196 67.2037C61.3712 67.2318 61.4274 67.2494 61.4825 67.2693C61.52 67.2834 61.5563 67.3033 61.595 67.3138C61.6794 67.3361 61.7673 67.3455 61.8551 67.3478C61.8669 67.3478 61.8774 67.3525 61.8891 67.3525H77.5714C81.0742 67.3525 84.0684 65.0052 84.8653 61.6384C84.8688 61.6255 84.8723 61.6126 84.8746 61.5985C85.2332 60.0575 84.8114 58.4297 83.7473 57.2473ZM12.4094 61.0747C12.4071 61.063 12.4036 61.0512 12.4012 61.0395C12.229 60.2508 12.4505 59.4223 12.9954 58.8153C13.5532 58.1942 14.3794 57.8707 15.2278 57.9621L35.4629 60.0622L32.4523 65.0087H17.4275C15.0099 65.0087 12.9462 63.3915 12.4094 61.0747ZM82.5988 61.0383C82.5965 61.0501 82.593 61.0618 82.5906 61.0735C82.0539 63.3903 79.9902 65.0075 77.5726 65.0075H62.5477L59.5371 60.061L79.7722 57.961C80.6136 57.8731 81.4469 58.193 82.0047 58.8129C82.5496 59.4211 82.7711 60.2508 82.5988 61.0383Z" fill="#52D3D8"/>
<path d="M47.5006 68.5244C42.8235 68.5244 39.2973 70.5401 39.2973 73.212C39.2973 75.8839 42.8235 77.8996 47.5006 77.8996C52.1776 77.8996 55.7038 75.8839 55.7038 73.212C55.7038 70.5401 52.1764 68.5244 47.5006 68.5244ZM47.5006 75.5558C43.9239 75.5558 41.6411 74.1671 41.6411 73.212C41.6411 72.2569 43.9239 70.8682 47.5006 70.8682C51.0772 70.8682 53.36 72.2569 53.36 73.212C53.36 74.1683 51.0772 75.5558 47.5006 75.5558Z" fill="#52D3D8"/>
<path d="M112.28 24.5H127.88V32.3H115.4L115.205 32.69L125.605 51.67C127.728 55.4833 128.79 58.3867 128.79 60.38C128.79 64.7567 127.338 67.9633 124.435 70H107.21V62.46H120.665L120.86 62.07L109.16 41.075C107.47 38.0417 106.625 35.5717 106.625 33.665C106.625 29.1583 108.51 26.1033 112.28 24.5ZM133.32 70V24.5H142.225V62.46H155.745V70H133.32ZM179.541 70L178.176 62.785H167.906L166.541 70H157.701L166.476 24.5H179.931L188.251 70H179.541ZM172.911 32.95L170.376 48.095L168.946 55.83H177.071L175.576 48.095L173.041 32.95H172.911ZM200.811 32.3V48.55H206.596C208.979 46.6 210.171 43.74 210.171 39.97C210.171 38.3667 209.846 36.85 209.196 35.42C208.589 33.99 207.853 32.95 206.986 32.3H200.811ZM192.036 70V24.5H209.651C212.598 25.8 214.916 27.7933 216.606 30.48C218.339 33.1667 219.206 36.3083 219.206 39.905C219.206 43.4583 218.318 46.7517 216.541 49.785C214.764 52.8183 212.143 54.9633 208.676 56.22H200.811V70H192.036ZM226.855 24.5H242.455V32.3H229.975L229.78 32.69L240.18 51.67C242.304 55.4833 243.365 58.3867 243.365 60.38C243.365 64.7567 241.914 67.9633 239.01 70H221.785V62.46H235.24L235.435 62.07L223.735 41.075C222.045 38.0417 221.2 35.5717 221.2 33.665C221.2 29.1583 223.085 26.1033 226.855 24.5ZM259.553 62.46H270.993V70H254.483C251.623 67.3133 249.457 63.9117 247.983 59.795C246.51 55.6783 245.773 51.4533 245.773 47.12C245.773 42.7433 246.597 38.54 248.243 34.51C249.89 30.48 252.338 27.1433 255.588 24.5H270.993V32.3H259.553C258.383 33.6433 257.365 35.81 256.498 38.8C255.675 41.79 255.263 44.65 255.263 47.38C255.263 50.11 255.675 52.97 256.498 55.96C257.365 58.95 258.383 61.1167 259.553 62.46ZM295.301 24.5C298.335 26.97 300.588 30.285 302.061 34.445C303.535 38.605 304.271 42.895 304.271 47.315C304.271 51.6917 303.556 55.8517 302.126 59.795C300.696 63.7383 298.421 67.14 295.301 70H281.911C278.791 67.14 276.516 63.7383 275.086 59.795C273.656 55.8517 272.941 51.6917 272.941 47.315C272.941 42.895 273.678 38.605 275.151 34.445C276.625 30.285 278.878 26.97 281.911 24.5H295.301ZM286.266 62.46H290.946C292.03 61.2033 292.94 59.1667 293.676 56.35C294.456 53.49 294.846 50.4783 294.846 47.315C294.846 44.1517 294.478 41.1833 293.741 38.41C293.005 35.5933 292.095 33.5567 291.011 32.3H286.266C285.183 33.5567 284.251 35.5933 283.471 38.41C282.735 41.1833 282.366 44.1517 282.366 47.315C282.366 50.4783 282.735 53.49 283.471 56.35C284.251 59.1667 285.183 61.2033 286.266 62.46ZM309.341 24.5H326.631C329.361 25.41 331.679 27.1 333.586 29.57C335.536 31.9967 336.511 34.9867 336.511 38.54C336.511 44.3467 334.214 48.615 329.621 51.345L336.186 70H327.086L321.561 53.425H318.116V70H309.341V24.5ZM318.116 32.3V46.145H323.706C324.442 45.9717 325.244 45.235 326.111 43.935C327.021 42.5917 327.476 41.0317 327.476 39.255C327.476 37.4783 327.086 35.9183 326.306 34.575C325.569 33.2317 324.832 32.4733 324.096 32.3H318.116ZM341.206 70V24.5H364.541V32.3H350.111V43.155H362.981V50.695H350.111V62.46H364.801V70H341.206ZM378.674 62.46H384.524C385.737 60.9433 386.691 58.7333 387.384 55.83C388.121 52.9267 388.489 50.045 388.489 47.185C388.489 40.3817 387.211 35.42 384.654 32.3H378.674V62.46ZM369.834 70V24.5H388.684C394.837 29.96 397.914 37.37 397.914 46.73C397.914 56.0467 395.032 63.8033 389.269 70H369.834Z" fill="#0A1D56"/>
</svg>
