<svg width="101" height="84" viewBox="0 0 101 84" fill="none" xmlns="http://www.w3.org/2000/svg">
<g clip-path="url(#clip0_3_5)">
<path d="M97.9242 42.0005C97.9242 65.1961 76.694 84.0001 50.5029 84.0001C24.3129 84.0001 3.08155 65.1961 3.08155 42.0005C3.08155 18.8048 24.3129 -0.000192489 50.5029 -0.000192489C76.694 -0.000192489 97.9242 18.8048 97.9242 42.0005Z" fill="#0DB04A"/>
<path d="M93.103 38.1925L87.007 32.425L86.3668 40.3221L78.8045 38.9592L81.32 31.4013L73.14 34.7131L70.8488 28.2481L79.5103 26.522L72.2345 21.9265L77.2179 16.9428L83.3264 22.6551L84.1423 14.8473L91.6423 16.1981L89.0146 23.6799L97.13 20.3572L99.547 26.8444L90.8855 28.5705L98.2236 33.1768L93.103 38.1925Z" fill="#ED3024"/>
</g>
<defs>
<clipPath id="clip0_3_5">
<rect width="101" height="84" fill="white"/>
</clipPath>
</defs>
</svg>
